<svg xmlns="http://www.w3.org/2000/svg" viewBox="0 0 128 128"><defs><style>.cls-1{opacity:0;}.cls-2{fill:#1a1a1a;}.cls-3{fill:#f7d8c6;}.cls-4{fill:#882924;}.cls-5{fill:#b03628;}.cls-6{fill:#d16647;}.cls-7{fill:#eda379;}</style></defs><title>diamond-bronze-3</title><g id="Layer_2" data-name="Layer 2"><g id="Diamond"><g class="cls-1"><rect class="cls-2" width="128" height="128"/></g><path class="cls-3" d="M45.38,54.89c-1.05-1-3.92-10.68-3-11.63S53,45.19,54,46.24s0,3.83-2.43,6.21S46.42,55.93,45.38,54.89Z"/><path class="cls-3" d="M74,46.24c1-1.05,10.68-3.93,11.63-3s-1.93,10.58-3,11.63-3.83,0-6.22-2.44S72.93,47.28,74,46.24Z"/><path class="cls-4" d="M47.5,75V89.87a4,4,0,0,0,1.17,2.83L61.4,105.42a3.67,3.67,0,0,0,5.2,0L79.33,92.7a4,4,0,0,0,1.17-2.83V75Z"/><path class="cls-5" d="M87.17,58.14,66.6,37.58a3.67,3.67,0,0,0-5.2,0L40.83,58.14a3.69,3.69,0,0,0-1.08,2.61v6.5a3.69,3.69,0,0,0,1.08,2.61L61.4,90.42a3.67,3.67,0,0,0,5.2,0L87.17,69.86a3.69,3.69,0,0,0,1.08-2.61v-6.5A3.69,3.69,0,0,0,87.17,58.14Z"/><rect class="cls-6" x="45.78" y="42.52" width="36.45" height="36.45" rx="3.68" transform="translate(-24.21 63.05) rotate(-45)"/><rect class="cls-7" x="52.37" y="49.12" width="23.26" height="23.26" rx="1.72" transform="translate(-24.21 63.05) rotate(-45)"/><path class="cls-3" d="M82.62,73.47c1,1,3.92,10.68,3,11.63S75,83.17,74,82.12s0-3.83,2.43-6.22S81.58,72.43,82.62,73.47Z"/><path class="cls-3" d="M54,82.12c-1.05,1-10.68,3.92-11.63,3s1.93-10.58,3-11.63,3.83,0,6.22,2.43S55.07,81.08,54,82.12Z"/></g></g></svg>