<svg xmlns="http://www.w3.org/2000/svg" viewBox="0 0 128 128"><defs><style>.cls-1{opacity:0;}.cls-2{fill:#1a1a1a;}.cls-3{fill:#60f7c5;}.cls-4{fill:#c4ffed;}.cls-5{fill:#fec92b;}.cls-6{fill:#fc9504;}.cls-7{fill:#3a0c8f;}.cls-8{fill:#9652e3;}.cls-9{fill:#fff;}.cls-10{fill:#00cccf;}</style></defs><title>hexagon-amethyst-9</title><g id="Layer_2" data-name="Layer 2"><g id="Hexagon"><g class="cls-1"><rect class="cls-2" width="128" height="128"/></g><path class="cls-3" d="M30.69,87.83l8.11-21.1,23.1-5.62L61.29,84.8,33,90.5A2,2,0,0,1,30.69,87.83Z"/><path class="cls-4" d="M19.31,22.85,58.38,52.39,51.46,72.53,32.32,71A6,6,0,0,1,27,66.5L16.17,25A2,2,0,0,1,19.31,22.85Z"/><path class="cls-3" d="M97.31,87.83,89.2,66.73,66.1,61.11l.61,23.69,28.34,5.7A2,2,0,0,0,97.31,87.83Z"/><path class="cls-4" d="M108.69,22.85,69.62,52.39l6.92,20.14L95.68,71A6,6,0,0,0,101,66.5L111.83,25A2,2,0,0,0,108.69,22.85Z"/><path class="cls-5" d="M64,72.4,48.53,81.33v23.54a2,2,0,0,0,3,1.73L64,99.4l12.47,7.2a2,2,0,0,0,3-1.73V81.33Z"/><polygon class="cls-6" points="56 77.02 56 104.02 64 99.4 72 104.02 72 77.02 64 72.4 56 77.02"/><path class="cls-7" d="M85,77.4V56.6a3,3,0,0,0-1.5-2.6l-18-10.4a3,3,0,0,0-3,0L44.48,54A3,3,0,0,0,43,56.6V77.4a3,3,0,0,0,1.5,2.6l18,10.4a3,3,0,0,0,3,0l18-10.4A3,3,0,0,0,85,77.4Z"/><path class="cls-8" d="M85,71.4V50.6a3,3,0,0,0-1.5-2.6l-18-10.4a3,3,0,0,0-3,0L44.48,48A3,3,0,0,0,43,50.6V71.4a3,3,0,0,0,1.5,2.6l18,10.4a3,3,0,0,0,3,0l18-10.4A3,3,0,0,0,85,71.4Z"/><path class="cls-9" d="M64,45.57a2.2,2.2,0,0,0-1.11.3l-11.43,6.6a2.16,2.16,0,0,0-.73.71l13.27,6Z"/><path class="cls-3" d="M50.59,68.6a2.23,2.23,0,0,0,.87.93l11.43,6.6a2.2,2.2,0,0,0,1.11.3V59.21Z"/><path class="cls-3" d="M77.41,68.6a2.31,2.31,0,0,0,.25-1V54.4a2.18,2.18,0,0,0-.39-1.22L64,59.21Z"/><path class="cls-4" d="M50.73,53.18a2.18,2.18,0,0,0-.39,1.22V67.6a2.31,2.31,0,0,0,.25,1L64,59.21Z"/><path class="cls-4" d="M76.54,52.47l-11.43-6.6a2.2,2.2,0,0,0-1.11-.3V59.21l13.27-6A2.16,2.16,0,0,0,76.54,52.47Z"/><path class="cls-10" d="M64,76.43a2.2,2.2,0,0,0,1.11-.3l11.43-6.6a2.23,2.23,0,0,0,.87-.93L64,59.21Z"/></g></g></svg>