<svg xmlns="http://www.w3.org/2000/svg" viewBox="0 0 128 128"><defs><style>.cls-1{fill:#1a1a1a;}.cls-2{fill:#eda379;}.cls-3{fill:#f7d8c6;}.cls-4{opacity:0;}.cls-5{fill:#009245;}.cls-6{fill:#65d666;}.cls-7{fill:#adf5a6;}.cls-8{fill:#b03628;}.cls-9{fill:#d16647;}.cls-10{fill:#fff;}</style></defs><title>hexagon-wood-12</title><g id="Layer_2" data-name="Layer 2"><g id="Hexagon"><path class="cls-1" d="M64,123.8a5,5,0,0,1-2.5-.67l-5.79-3.34a5,5,0,0,1-2.5-4.33V106l-.67.38a4,4,0,0,1-6-3.46v-7.4L27.35,99.33a4.45,4.45,0,0,1-.81.08A4,4,0,0,1,22.82,94l7-18.12-3.91-.32a8,8,0,0,1-7.09-6l-1.42-5.45-3.07.82a3.3,3.3,0,0,1-1,.13,4.41,4.41,0,0,1-.79-.08,4,4,0,0,1-2.64-1.78L2.71,51.48a3.94,3.94,0,0,1,3.35-6l6.51.18L5.19,17.36a3.92,3.92,0,0,1,.69-3.44,4.07,4.07,0,0,1,3.19-1.57,4,4,0,0,1,2.4.81L50.15,42.42,61.5,35.87a5,5,0,0,1,5,0l11.68,6.74,38.35-29a3.94,3.94,0,0,1,2.4-.82,4,4,0,0,1,3.19,1.58,3.92,3.92,0,0,1,.69,3.44l-7.26,27.85,6.39-.18a3.94,3.94,0,0,1,3.35,6l-7.22,11.73A4,4,0,0,1,115.43,65a4.41,4.41,0,0,1-.79.08,3.3,3.3,0,0,1-1-.13l-3-.79L109.2,70a8,8,0,0,1-7.09,6l-3.74.31L105.18,94a4,4,0,0,1-3.72,5.44,4.45,4.45,0,0,1-.81-.08L81.46,95.47v7.4a4,4,0,0,1-4,4,3.92,3.92,0,0,1-2-.54l-.68-.38v9.51a5,5,0,0,1-2.5,4.33l-5.79,3.34A5,5,0,0,1,64,123.8Z"/><path class="cls-1" d="M9.07,14.35a1.93,1.93,0,0,1,1.19.41L50,44.81,62.5,37.6a3,3,0,0,1,3,0L78.33,45l39.41-29.8a2,2,0,0,1,3.14,2.1l-7.94,30.44,8.94-.26h.06a1.93,1.93,0,0,1,1.64,3l-7.22,11.73a1.92,1.92,0,0,1-1.3.86,2,2,0,0,1-.42,0,1.54,1.54,0,0,1-.43-.06L109.3,61.7l-2,7.81A6,6,0,0,1,101.94,74l-6.4.52,7.77,20.19a2,2,0,0,1-1.85,2.72,2.85,2.85,0,0,1-.41,0L79.47,93v9.85a2,2,0,0,1-2,2,1.92,1.92,0,0,1-1-.27l-3.68-2.12v13a3,3,0,0,1-1.5,2.6L65.5,121.4a3,3,0,0,1-3,0l-5.79-3.34a3,3,0,0,1-1.5-2.6v-13l-3.68,2.12a1.92,1.92,0,0,1-1,.27,2,2,0,0,1-2-2V93L27,97.37a2.85,2.85,0,0,1-.41,0,2,2,0,0,1-1.85-2.72l7.93-20.62-6.56-.54a6,6,0,0,1-5.32-4.46l-1.93-7.4-5,1.34a1.54,1.54,0,0,1-.43.06,2,2,0,0,1-.42,0,1.92,1.92,0,0,1-1.3-.86L4.42,50.43a1.93,1.93,0,0,1,1.64-3h.06l9.06.26L7.12,16.86a2,2,0,0,1,2-2.51m0-4h0A6.1,6.1,0,0,0,4.29,12.7a6,6,0,0,0-1,5.17L10,43.59l-3.73-.11H6.06a5.93,5.93,0,0,0-5,9.05L8.23,64.26a6,6,0,0,0,4,2.69,5.69,5.69,0,0,0,2.62-.07L16,66.57l.92,3.51a10,10,0,0,0,8.86,7.44l1.24.1L21,93.25a6,6,0,0,0,6.78,8l16.79-3.38v5a6,6,0,0,0,6,6,5.12,5.12,0,0,0,.67,0v6.63a7,7,0,0,0,3.5,6.06l5.79,3.35a7.05,7.05,0,0,0,7,0l5.79-3.35a7,7,0,0,0,3.5-6.06v-6.63a5.12,5.12,0,0,0,.67,0,6,6,0,0,0,6-6v-5l16.79,3.38a6,6,0,0,0,6.78-8l-5.84-15.2,1.07-.09a10,10,0,0,0,8.86-7.44l1-3.92,1,.28a6.08,6.08,0,0,0,6.59-2.62L127,52.53a5.93,5.93,0,0,0-5-9.05h-.18l-3.6.11,6.59-25.28a6,6,0,0,0-1-5.17,6.1,6.1,0,0,0-4.78-2.35A6,6,0,0,0,115.32,12L78,40.21,67.5,34.13a7.05,7.05,0,0,0-7,0L50.3,40,12.68,11.57a6,6,0,0,0-3.61-1.22Z"/><path class="cls-1" d="M108.46,121.62a4,4,0,0,1-1.13-.17l-13.2-3.94a4.05,4.05,0,0,1-2.81-3.77v-9.25a3.93,3.93,0,0,1,3.94-3.94h9.25a3.87,3.87,0,0,1,1.69.4,4,4,0,0,1,2.08,2.41l4,13.19a4,4,0,0,1-1,3.91,3.9,3.9,0,0,1-2.78,1.16Z"/><path class="cls-1" d="M95.26,102.55h9.25a2,2,0,0,1,.83.21,1.9,1.9,0,0,1,1,1.17l3.94,13.19a1.95,1.95,0,0,1-1.85,2.5,2.23,2.23,0,0,1-.56-.08l-13.2-4a2,2,0,0,1-1.38-1.85v-9.25a1.93,1.93,0,0,1,.57-1.37,1.89,1.89,0,0,1,1.37-.57m0-4h0a5.94,5.94,0,0,0-5.94,5.93v9.26a6.06,6.06,0,0,0,4.24,5.69l13.19,3.94a6.26,6.26,0,0,0,1.71.25,5.94,5.94,0,0,0,5.68-7.64l-3.94-13.19a6,6,0,0,0-5.69-4.24Z"/><path class="cls-1" d="M19.54,121.62a3.9,3.9,0,0,1-2.78-1.16,4,4,0,0,1-1-3.91l3.95-13.19A3.92,3.92,0,0,1,21.8,101a3.75,3.75,0,0,1,1.69-.41h9.25a3.94,3.94,0,0,1,3.94,3.94v9.25a4.05,4.05,0,0,1-2.81,3.77l-13.2,3.94A4,4,0,0,1,19.54,121.62Z"/><path class="cls-1" d="M32.74,102.55a1.89,1.89,0,0,1,1.37.57,1.93,1.93,0,0,1,.57,1.37v9.25a2,2,0,0,1-1.38,1.85l-13.2,4a2.23,2.23,0,0,1-.56.08,1.95,1.95,0,0,1-1.85-2.5l3.94-13.19a1.9,1.9,0,0,1,1-1.17,2,2,0,0,1,.83-.21h9.25m0-4H23.49a6,6,0,0,0-5.69,4.24L13.86,116a5.94,5.94,0,0,0,5.68,7.64,6.26,6.26,0,0,0,1.71-.25l13.19-3.94a5.94,5.94,0,0,0,3.63-3.14,5.86,5.86,0,0,0,.61-2.55v-9.25a5.94,5.94,0,0,0-5.94-5.94Z"/><path class="cls-2" d="M24.69,94.69l10.08-26.2,27.9-6.78-.74,28.62-35,7A2,2,0,0,1,24.69,94.69Z"/><path class="cls-2" d="M103.31,94.69,93.23,68.49l-27.9-6.78.74,28.62,35,7A2,2,0,0,0,103.31,94.69Z"/><path class="cls-3" d="M10.26,14.76,58.41,51.17,50.05,75.5l-24-2a6,6,0,0,1-5.32-4.46L7.12,16.86A2,2,0,0,1,10.26,14.76Z"/><path class="cls-3" d="M117.74,15.2,69.59,51.61,78,75.94l24-2a6,6,0,0,0,5.32-4.47L120.88,17.3A2,2,0,0,0,117.74,15.2Z"/><g class="cls-4"><rect class="cls-1" width="128" height="128"/></g><path class="cls-5" d="M55.21,91v24.46a3,3,0,0,0,1.5,2.6l5.79,3.34a3,3,0,0,0,3,0l5.79-3.34a3,3,0,0,0,1.5-2.6V91Z"/><path class="cls-6" d="M64,70.4,48.53,79.33v23.54a2,2,0,0,0,3,1.73L64,97.4l12.47,7.2a2,2,0,0,0,3-1.73V79.33Z"/><polygon class="cls-7" points="57.43 101.2 64 97.4 70.57 101.2 70.57 74.2 64 70.4 57.43 74.2 57.43 101.2"/><path class="cls-8" d="M85,77.4V56.6a3,3,0,0,0-1.5-2.6l-18-10.4a3,3,0,0,0-3,0L44.48,54A3,3,0,0,0,43,56.6V77.4a3,3,0,0,0,1.5,2.6l18,10.4a3,3,0,0,0,3,0l18-10.4A3,3,0,0,0,85,77.4Z"/><path class="cls-9" d="M85,71.4V50.6a3,3,0,0,0-1.5-2.6l-18-10.4a3,3,0,0,0-3,0L44.48,48A3,3,0,0,0,43,50.6V71.4a3,3,0,0,0,1.5,2.6l18,10.4a3,3,0,0,0,3,0l18-10.4A3,3,0,0,0,85,71.4Z"/><path class="cls-10" d="M64,45.57a2.2,2.2,0,0,0-1.11.3l-11.43,6.6a2.16,2.16,0,0,0-.73.71l13.27,6Z"/><path class="cls-6" d="M50.59,68.6a2.23,2.23,0,0,0,.87.93l11.43,6.6a2.2,2.2,0,0,0,1.11.3V59.21Z"/><path class="cls-6" d="M77.41,68.6a2.31,2.31,0,0,0,.25-1V54.4a2.18,2.18,0,0,0-.39-1.22L64,59.21Z"/><path class="cls-7" d="M50.73,53.18a2.18,2.18,0,0,0-.39,1.22V67.6a2.31,2.31,0,0,0,.25,1L64,59.21Z"/><path class="cls-7" d="M76.54,52.47l-11.43-6.6a2.2,2.2,0,0,0-1.11-.3V59.21l13.27-6A2.16,2.16,0,0,0,76.54,52.47Z"/><path class="cls-5" d="M64,76.43a2.2,2.2,0,0,0,1.11-.3l11.43-6.6a2.23,2.23,0,0,0,.87-.93L64,59.21Z"/><path class="cls-7" d="M105.34,102.76a2,2,0,0,0-.83-.21H95.26a1.89,1.89,0,0,0-1.37.57l4.29,4.28Z"/><path class="cls-6" d="M109.82,119.05a1.91,1.91,0,0,0,.49-1.93l-3.94-13.19a1.9,1.9,0,0,0-1-1.17l-7.16,4.64Z"/><path class="cls-5" d="M94.7,115.59l13.2,4a1.92,1.92,0,0,0,1.92-.49L98.18,107.4l-4.65,7.16A1.93,1.93,0,0,0,94.7,115.59Z"/><path class="cls-6" d="M93.89,103.12a1.93,1.93,0,0,0-.57,1.37v9.25a1.92,1.92,0,0,0,.21.82l4.65-7.16Z"/><path class="cls-7" d="M22.66,102.76a2,2,0,0,1,.83-.21h9.25a1.89,1.89,0,0,1,1.37.57l-4.29,4.28Z"/><path class="cls-6" d="M18.18,119.05a1.91,1.91,0,0,1-.49-1.93l3.94-13.19a1.9,1.9,0,0,1,1-1.17l7.16,4.64Z"/><path class="cls-5" d="M33.3,115.59l-13.2,4a1.92,1.92,0,0,1-1.92-.49L29.82,107.4l4.65,7.16A1.93,1.93,0,0,1,33.3,115.59Z"/><path class="cls-6" d="M34.11,103.12a1.93,1.93,0,0,1,.57,1.37v9.25a1.92,1.92,0,0,1-.21.82l-4.65-7.16Z"/><path class="cls-6" d="M106.72,48.56a1.92,1.92,0,0,0-.42.75l-2.39,8.94a1.92,1.92,0,0,0,.19,1.47l5.25-3Z"/><path class="cls-7" d="M123.61,48.45a1.91,1.91,0,0,0-1.73-1l-13.76.39a1.94,1.94,0,0,0-1.4.69l2.63,8.12Z"/><path class="cls-6" d="M116.36,62.16l7.22-11.73a1.88,1.88,0,0,0,0-2l-14.26,8.23L115.06,63A1.92,1.92,0,0,0,116.36,62.16Z"/><path class="cls-5" d="M104.1,59.72a2,2,0,0,0,1.18.9L114.21,63a1.75,1.75,0,0,0,.85,0l-5.71-6.34Z"/><path class="cls-6" d="M21.28,48.56a1.92,1.92,0,0,1,.42.75l2.39,8.94a1.92,1.92,0,0,1-.19,1.47l-5.25-3Z"/><path class="cls-7" d="M4.39,48.45a1.91,1.91,0,0,1,1.73-1l13.76.39a1.94,1.94,0,0,1,1.4.69l-2.63,8.12Z"/><path class="cls-6" d="M11.64,62.16,4.42,50.43a1.88,1.88,0,0,1,0-2l14.26,8.23L12.94,63A1.92,1.92,0,0,1,11.64,62.16Z"/><path class="cls-5" d="M23.9,59.72a2,2,0,0,1-1.18.9L13.79,63a1.75,1.75,0,0,1-.85,0l5.71-6.34Z"/><path class="cls-1" d="M64,29.27a3.92,3.92,0,0,1-2.79-1.16l-6.54-6.54a3.86,3.86,0,0,1-.91-1.49A4,4,0,0,1,54,16.92L60.54,4.8a3.93,3.93,0,0,1,6.92,0L74,16.92a3.93,3.93,0,0,1,.22,3.17,3.76,3.76,0,0,1-.9,1.48l-6.55,6.54A3.88,3.88,0,0,1,64,29.27Z"/><path class="cls-1" d="M64,4.73a1.9,1.9,0,0,1,1.7,1l6.55,12.12a2,2,0,0,1,.1,1.55,2,2,0,0,1-.44.74L65.37,26.7a1.93,1.93,0,0,1-2.74,0l-6.54-6.54a2,2,0,0,1-.44-.74,2,2,0,0,1,.1-1.55L62.3,5.75a1.9,1.9,0,0,1,1.7-1m0-4a5.93,5.93,0,0,0-5.22,3.12L52.23,16a6.06,6.06,0,0,0,1,7l6.54,6.54a5.94,5.94,0,0,0,8.4,0L74.74,23a6.06,6.06,0,0,0,1-7L69.22,3.85A5.93,5.93,0,0,0,64,.73Z"/><path class="cls-6" d="M55.65,19.42a2,2,0,0,0,.44.74l6.54,6.54a1.92,1.92,0,0,0,1.37.57V21.2Z"/><path class="cls-7" d="M64,4.73a1.9,1.9,0,0,0-1.7,1L55.75,17.87a2,2,0,0,0-.1,1.55L64,21.2Z"/><path class="cls-6" d="M72.25,17.87,65.7,5.75a1.9,1.9,0,0,0-1.7-1V21.2l8.35-1.78A2,2,0,0,0,72.25,17.87Z"/><path class="cls-5" d="M64,27.27a1.92,1.92,0,0,0,1.37-.57l6.54-6.54a2,2,0,0,0,.44-.74L64,21.2Z"/></g></g></svg>