<svg xmlns="http://www.w3.org/2000/svg" viewBox="0 0 128 128"><defs><style>.cls-1{fill:#1a1a1a;}.cls-2{fill:#65d666;}.cls-3{opacity:0;}.cls-4{fill:#b03628;}.cls-5{fill:#d16647;}.cls-6{fill:#eda379;}</style></defs><title>hexagon-wood-2</title><g id="Layer_2" data-name="Layer 2"><g id="Hexagon"><path class="cls-1" d="M64,105.66a5.09,5.09,0,0,1-2.5-.67L49,97.79a5,5,0,0,1-2.5-4.33v-10l-3.06-1.76A5,5,0,0,1,41,77.4V50.6a5,5,0,0,1,2.5-4.33l18-10.4a5,5,0,0,1,5,0l18,10.4A5,5,0,0,1,87,50.6V77.4a5,5,0,0,1-2.5,4.33l-3.06,1.76v10A5,5,0,0,1,79,97.79L66.5,105A5.09,5.09,0,0,1,64,105.66Z"/><path class="cls-1" d="M64,37.2a3,3,0,0,1,1.5.4l18,10.4A3,3,0,0,1,85,50.6V77.4a3,3,0,0,1-1.5,2.6l-4,2.34V93.46a3,3,0,0,1-1.5,2.6L65.5,103.25a2.95,2.95,0,0,1-3,0L50,96.06a3,3,0,0,1-1.5-2.6V82.34L44.48,80A3,3,0,0,1,43,77.4V50.6a3,3,0,0,1,1.5-2.6l18-10.4a3,3,0,0,1,1.5-.4m0-4a7,7,0,0,0-3.5.93l-18,10.41A7,7,0,0,0,39,50.6V77.4a7,7,0,0,0,3.5,6.06l2.05,1.19v8.81A7,7,0,0,0,48,99.52l12.47,7.2a7,7,0,0,0,7,0L80,99.52a7,7,0,0,0,3.5-6.06V84.65l2-1.19A7,7,0,0,0,89,77.4V50.6a7,7,0,0,0-3.5-6.06l-18-10.41A7,7,0,0,0,64,33.2Z"/><path class="cls-2" d="M79.47,93.46V79.07a3,3,0,0,0-1.5-2.6L65.5,69.27a3,3,0,0,0-3,0L50,76.47a3,3,0,0,0-1.5,2.6V93.46a3,3,0,0,0,1.5,2.6l12.47,7.19a3,3,0,0,0,3,0L78,96.06A3,3,0,0,0,79.47,93.46Z"/><g class="cls-3"><rect class="cls-1" width="128" height="128"/></g><path class="cls-4" d="M85,77.4V56.6a3,3,0,0,0-1.5-2.6l-18-10.4a3,3,0,0,0-3,0L44.48,54A3,3,0,0,0,43,56.6V77.4a3,3,0,0,0,1.5,2.6l18,10.4a3,3,0,0,0,3,0l18-10.4A3,3,0,0,0,85,77.4Z"/><path class="cls-5" d="M85,71.4V50.6a3,3,0,0,0-1.5-2.6l-18-10.4a3,3,0,0,0-3,0L44.48,48A3,3,0,0,0,43,50.6V71.4a3,3,0,0,0,1.5,2.6l18,10.4a3,3,0,0,0,3,0l18-10.4A3,3,0,0,0,85,71.4Z"/><path class="cls-6" d="M77.27,53.18a2.16,2.16,0,0,0-.73-.71l-11.43-6.6a2.2,2.2,0,0,0-2.22,0l-11.43,6.6a2.16,2.16,0,0,0-.73.71,2.18,2.18,0,0,0-.39,1.22V67.6a2.31,2.31,0,0,0,.25,1,2.23,2.23,0,0,0,.87.93l11.43,6.6a2.2,2.2,0,0,0,2.22,0l11.43-6.6a2.23,2.23,0,0,0,.87-.93,2.31,2.31,0,0,0,.25-1V54.4A2.18,2.18,0,0,0,77.27,53.18Z"/></g></g></svg>