<svg xmlns="http://www.w3.org/2000/svg" viewBox="0 0 128 128"><defs><style>.cls-1{fill:#1a1a1a;}.cls-2{opacity:0;}.cls-3{fill:#f7d8c6;}.cls-4{fill:#fff;}.cls-5{fill:#009245;}.cls-6{fill:#65d666;}.cls-7{fill:#adf5a6;}.cls-8{fill:#b03628;}.cls-9{fill:#d16647;}</style></defs><title>hexagon-wood-10</title><g id="Layer_2" data-name="Layer 2"><g id="Hexagon"><path class="cls-1" d="M64.09,119.8a5,5,0,0,1-2.5-.67l-5.79-3.34a5,5,0,0,1-2.5-4.33V106l-.67.38a3.93,3.93,0,0,1-2,.54,4,4,0,0,1-4-4V89.19L30.34,92.47a4.26,4.26,0,0,1-.8.08,4,4,0,0,1-3.72-5.44l5.38-14-2-.17a8,8,0,0,1-7.09-6L11.24,25.46A3.92,3.92,0,0,1,11.93,22a4,4,0,0,1,3.19-1.58,3.94,3.94,0,0,1,2.4.82L47.56,44l14-8.1a5,5,0,0,1,5,0l13.93,8,30-22.65a3.94,3.94,0,0,1,2.4-.82A4,4,0,0,1,116.07,22a3.92,3.92,0,0,1,.69,3.44L105.93,67a8,8,0,0,1-7.09,6l-2,.17,5.38,14a4,4,0,0,1-3.72,5.44h0a4.26,4.26,0,0,1-.8-.08l-16.1-3.24v13.64a4,4,0,0,1-4,4,3.92,3.92,0,0,1-2-.54l-.68-.38v5.51a5,5,0,0,1-2.5,4.33l-5.79,3.34A5,5,0,0,1,64.09,119.8Z"/><path class="cls-1" d="M112.88,22.44a2,2,0,0,1,2,2.51L104,66.5A6,6,0,0,1,98.68,71L94,71.35l6.34,16.48a2,2,0,0,1-1.85,2.72,1.92,1.92,0,0,1-.41,0L79.56,86.78v16.09a2,2,0,0,1-2,2,1.92,1.92,0,0,1-1-.27l-3.68-2.12v9a3,3,0,0,1-1.5,2.6l-5.79,3.34a3,3,0,0,1-3,0l-5.79-3.34a3,3,0,0,1-1.5-2.6v-9l-3.67,2.12a2,2,0,0,1-3-1.73V86.75L30,90.5a1.92,1.92,0,0,1-.41,0,2,2,0,0,1-1.85-2.72L34,71.35,29.32,71A6,6,0,0,1,24,66.5L13.17,25a2,2,0,0,1,3.14-2.1l31.1,23.51L62.59,37.6a3,3,0,0,1,3,0l15.08,8.7,31-23.45a2,2,0,0,1,1.19-.41m0-4a6,6,0,0,0-3.61,1.22L80.37,41.51,67.59,34.13a7.05,7.05,0,0,0-7,0L47.7,41.57l-29-21.91a6,6,0,0,0-3.61-1.22,6.1,6.1,0,0,0-4.78,2.35A6,6,0,0,0,9.3,26L20.14,67.51a10,10,0,0,0,8.24,7.37L24,86.39a6,6,0,0,0,5.59,8.16,6.11,6.11,0,0,0,1.2-.12l13.89-2.8v11.24a6,6,0,0,0,6,6,5,5,0,0,0,.67,0v2.63a7,7,0,0,0,3.5,6.06l5.79,3.35a7.05,7.05,0,0,0,7,0l5.79-3.35a7,7,0,0,0,3.5-6.06v-2.63a5.12,5.12,0,0,0,.67,0,6,6,0,0,0,6-6V91.67l13.7,2.76a6.11,6.11,0,0,0,1.2.12,6,6,0,0,0,5.59-8.16L99.62,74.88a10,10,0,0,0,8.24-7.38L118.7,26a6,6,0,0,0-1-5.17,6.1,6.1,0,0,0-4.78-2.35Z"/><path class="cls-1" d="M110.22,121.72a3.41,3.41,0,0,1-1-.14l-8.71-2.6a3.26,3.26,0,0,1-2-1.73,3.32,3.32,0,0,1-.34-1.42v-6.1a3.28,3.28,0,0,1,3.28-3.28h6.11a3.18,3.18,0,0,1,1.41.34,3.26,3.26,0,0,1,1.73,2l2.6,8.71a3.26,3.26,0,0,1-.82,3.25,3.21,3.21,0,0,1-2.31,1Z"/><path class="cls-1" d="M101.5,108.45h6.11a1.36,1.36,0,0,1,1.22.91l2.61,8.71a1.27,1.27,0,0,1-1.6,1.59l-8.7-2.6a1.26,1.26,0,0,1-.78-.68,1.28,1.28,0,0,1-.14-.55v-6.1a1.32,1.32,0,0,1,.38-.91,1.27,1.27,0,0,1,.9-.37m0-4h0a5.29,5.29,0,0,0-5.28,5.28v6.1a5.12,5.12,0,0,0,.54,2.28,5.24,5.24,0,0,0,3.23,2.78l8.71,2.6a5.21,5.21,0,0,0,5.24-1.32,5.27,5.27,0,0,0,1.33-5.24l-2.6-8.71a5.3,5.3,0,0,0-2.79-3.24,5.24,5.24,0,0,0-2.27-.53Z"/><path class="cls-1" d="M64,25.44a3.27,3.27,0,0,1-2.32-1l-4.32-4.32a3.5,3.5,0,0,1-.76-1.23,3.34,3.34,0,0,1,.2-2.65l4.32-8a3.28,3.28,0,0,1,5.77,0l4.31,8a3.32,3.32,0,0,1,.2,2.64,3.45,3.45,0,0,1-.76,1.24l-4.32,4.32A3.25,3.25,0,0,1,64,25.44Z"/><path class="cls-1" d="M64,8.56a1.3,1.3,0,0,1,1.13.67l4.31,8a1.24,1.24,0,0,1,.07,1,1.19,1.19,0,0,1-.29.48L64.9,23.06a1.26,1.26,0,0,1-1.8,0l-4.32-4.32a1.19,1.19,0,0,1-.29-.48,1.24,1.24,0,0,1,.07-1l4.31-8A1.3,1.3,0,0,1,64,8.56m0-4a5.31,5.31,0,0,0-4.65,2.77l-4.31,8a5.27,5.27,0,0,0-.32,4.26,5.18,5.18,0,0,0,1.23,2l4.32,4.32a5.26,5.26,0,0,0,7.46,0l4.32-4.32a5.15,5.15,0,0,0,1.23-2A5.25,5.25,0,0,0,73,15.33l-4.31-8A5.31,5.31,0,0,0,64,4.56Z"/><path class="cls-1" d="M17.78,121.72a3.21,3.21,0,0,1-2.31-1,3.26,3.26,0,0,1-.82-3.25l2.6-8.71a3.26,3.26,0,0,1,1.73-2,3.18,3.18,0,0,1,1.41-.34H26.5a3.28,3.28,0,0,1,3.28,3.28v6.1a3.32,3.32,0,0,1-.34,1.42,3.26,3.26,0,0,1-2,1.73l-8.7,2.6a3.41,3.41,0,0,1-.95.14Z"/><path class="cls-1" d="M26.5,108.45a1.27,1.27,0,0,1,.9.37,1.32,1.32,0,0,1,.38.91v6.1a1.28,1.28,0,0,1-.14.55,1.26,1.26,0,0,1-.78.68l-8.7,2.6a1.26,1.26,0,0,1-.38.06,1.3,1.3,0,0,1-1.22-1.65l2.61-8.71a1.36,1.36,0,0,1,1.22-.91H26.5m0-4H20.39a5.33,5.33,0,0,0-5.06,3.77l-2.6,8.71a5.29,5.29,0,0,0,5.05,6.79,5.18,5.18,0,0,0,1.52-.23l8.71-2.6a5.24,5.24,0,0,0,3.23-2.78,5.12,5.12,0,0,0,.54-2.28v-6.1a5.29,5.29,0,0,0-5.28-5.28Z"/><g class="cls-2"><rect class="cls-1" width="128" height="128"/></g><path class="cls-3" d="M27.69,87.83l8.11-21.1,23.1-5.62L58.29,84.8,30,90.5A2,2,0,0,1,27.69,87.83Z"/><path class="cls-3" d="M100.31,87.83,92.2,66.73,69.1,61.11l.61,23.69,28.34,5.7A2,2,0,0,0,100.31,87.83Z"/><path class="cls-4" d="M16.31,22.85,55.38,52.39,48.46,72.53,29.32,71A6,6,0,0,1,24,66.5L13.17,25A2,2,0,0,1,16.31,22.85Z"/><path class="cls-4" d="M111.69,22.85,72.62,52.39l6.92,20.14L98.68,71A6,6,0,0,0,104,66.5L114.83,25A2,2,0,0,0,111.69,22.85Z"/><path class="cls-5" d="M55.3,91v20.46a3,3,0,0,0,1.5,2.6l5.79,3.34a3,3,0,0,0,3,0l5.79-3.34a3,3,0,0,0,1.5-2.6V91Z"/><path class="cls-6" d="M64.09,70.4,48.63,79.33v23.54a2,2,0,0,0,3,1.73l12.46-7.2,12.47,7.2a2,2,0,0,0,3-1.73V79.33Z"/><polygon class="cls-7" points="57.52 101.2 64.09 97.4 70.67 101.2 70.67 74.2 64.09 70.4 57.52 74.2 57.52 101.2"/><path class="cls-8" d="M85.11,77.4V56.6a3,3,0,0,0-1.5-2.6l-18-10.4a3,3,0,0,0-3,0L44.57,54a3,3,0,0,0-1.5,2.6V77.4a3,3,0,0,0,1.5,2.6l18,10.4a3,3,0,0,0,3,0l18-10.4A3,3,0,0,0,85.11,77.4Z"/><path class="cls-9" d="M85.11,71.4V50.6a3,3,0,0,0-1.5-2.6l-18-10.4a3,3,0,0,0-3,0L44.57,48a3,3,0,0,0-1.5,2.6V71.4a3,3,0,0,0,1.5,2.6l18,10.4a3,3,0,0,0,3,0l18-10.4A3,3,0,0,0,85.11,71.4Z"/><path class="cls-4" d="M64.09,45.57a2.2,2.2,0,0,0-1.11.3l-11.43,6.6a2.16,2.16,0,0,0-.73.71l13.27,6Z"/><path class="cls-6" d="M50.68,68.6a2.29,2.29,0,0,0,.87.93L63,76.13a2.2,2.2,0,0,0,1.11.3V59.21Z"/><path class="cls-6" d="M77.5,68.6a2.31,2.31,0,0,0,.25-1V54.4a2.26,2.26,0,0,0-.38-1.22l-13.28,6Z"/><path class="cls-7" d="M50.82,53.18a2.18,2.18,0,0,0-.39,1.22V67.6a2.31,2.31,0,0,0,.25,1l13.41-9.39Z"/><path class="cls-7" d="M76.64,52.47,65.2,45.87a2.18,2.18,0,0,0-1.11-.3V59.21l13.28-6A2.36,2.36,0,0,0,76.64,52.47Z"/><path class="cls-5" d="M64.09,76.43a2.18,2.18,0,0,0,1.11-.3l11.44-6.6a2.2,2.2,0,0,0,.86-.93L64.09,59.21Z"/><path class="cls-7" d="M69.44,17.23l-4.31-8a1.29,1.29,0,0,0-2.26,0l-4.31,8a1.24,1.24,0,0,0-.07,1,1.19,1.19,0,0,0,.29.48l4.32,4.32a1.26,1.26,0,0,0,1.8,0l4.32-4.32a1.19,1.19,0,0,0,.29-.48A1.24,1.24,0,0,0,69.44,17.23Z"/><path class="cls-7" d="M111.44,118.07l-2.61-8.71a1.36,1.36,0,0,0-1.22-.91H101.5a1.27,1.27,0,0,0-.9.37,1.32,1.32,0,0,0-.38.91v6.1a1.35,1.35,0,0,0,.92,1.23l8.7,2.6a1.29,1.29,0,0,0,1.6-1.59Z"/><path class="cls-7" d="M26.5,108.45H20.39a1.36,1.36,0,0,0-1.22.91l-2.61,8.71a1.29,1.29,0,0,0,1.6,1.59l8.7-2.6a1.35,1.35,0,0,0,.92-1.23v-6.1a1.32,1.32,0,0,0-.38-.91A1.27,1.27,0,0,0,26.5,108.45Z"/></g></g></svg>