<svg xmlns="http://www.w3.org/2000/svg" viewBox="0 0 128 128"><defs><style>.cls-1{opacity:0;}.cls-2{fill:#1a1a1a;}.cls-3{fill:#abfff0;}.cls-4{fill:#fff;}.cls-5{fill:#73f0e8;}.cls-6{fill:#00cccf;}</style></defs><title>diamond-platinum-9</title><g id="Layer_2" data-name="Layer 2"><g id="Diamond"><g class="cls-1"><rect class="cls-2" width="128" height="128"/></g><path class="cls-3" d="M90.68,77l3-9H34.33l3,9a3,3,0,0,0,2.84,2H87.84A3,3,0,0,0,90.68,77Z"/><path class="cls-4" d="M102.23,49H25.77a2,2,0,0,0-1.89,2.63L28.65,66a3,3,0,0,0,2.85,2h65a3,3,0,0,0,2.85-2l4.77-14.32A2,2,0,0,0,102.23,49Z"/><path class="cls-4" d="M45.38,54.89c-1.05-1-3.92-10.68-3-11.63S53,45.19,54,46.24s0,3.83-2.43,6.21S46.42,55.93,45.38,54.89Z"/><path class="cls-4" d="M74,46.24c1-1.05,10.68-3.93,11.63-3s-1.93,10.58-3,11.63-3.83,0-6.22-2.44S72.93,47.28,74,46.24Z"/><path class="cls-5" d="M47.5,75V89.87a4,4,0,0,0,1.17,2.83L61.4,105.42a3.67,3.67,0,0,0,5.2,0L79.33,92.7a4,4,0,0,0,1.17-2.83V75Z"/><path class="cls-4" d="M72,75H56v25l5.4,5.39a3.67,3.67,0,0,0,5.2,0L72,100Z"/><path class="cls-6" d="M87.17,58.14,66.6,37.58a3.67,3.67,0,0,0-5.2,0L40.83,58.14a3.69,3.69,0,0,0-1.08,2.61v6.5a3.69,3.69,0,0,0,1.08,2.61L61.4,90.42a3.67,3.67,0,0,0,5.2,0L87.17,69.86a3.69,3.69,0,0,0,1.08-2.61v-6.5A3.69,3.69,0,0,0,87.17,58.14Z"/><rect class="cls-3" x="45.78" y="42.52" width="36.45" height="36.45" rx="3.68" transform="translate(-24.21 63.05) rotate(-45)"/><path class="cls-4" d="M82.62,73.47c1,1,3.92,10.68,3,11.63S75,83.17,74,82.12s0-3.83,2.43-6.22S81.58,72.43,82.62,73.47Z"/><path class="cls-4" d="M54,82.12c-1.05,1-10.68,3.92-11.63,3s1.93-10.58,3-11.63,3.83,0,6.22,2.43S55.07,81.08,54,82.12Z"/><path class="cls-4" d="M64,45a1.72,1.72,0,0,0-1.22.51l-14,14a1.72,1.72,0,0,0-.51,1.22H64Z"/><path class="cls-3" d="M48.26,60.75A1.68,1.68,0,0,0,48.77,62l14,14a1.71,1.71,0,0,0,1.22.5V60.75Z"/><path class="cls-6" d="M64,76.48a1.71,1.71,0,0,0,1.22-.5l14-14a1.68,1.68,0,0,0,.51-1.21H64Z"/><path class="cls-3" d="M65.22,45.52A1.72,1.72,0,0,0,64,45V60.75H79.74a1.72,1.72,0,0,0-.51-1.22Z"/></g></g></svg>