<svg xmlns="http://www.w3.org/2000/svg" viewBox="0 0 128 128"><defs><style>.cls-1{fill:#5d7c8c;}.cls-2{fill:#476475;}.cls-3{opacity:0;}.cls-4{fill:#1a1a1a;}.cls-5{fill:#7b97a6;}.cls-6{fill:#324652;}.cls-7{fill:#abc0c9;}</style></defs><title>hexagon-onyx-8</title><g id="Layer_2" data-name="Layer 2"><g id="Hexagon"><path class="cls-1" d="M64,72.4,48.53,81.33v23.54a2,2,0,0,0,3,1.73L64,99.4l12.47,7.2a2,2,0,0,0,3-1.73V81.33Z"/><polygon class="cls-2" points="56 77.02 56 104.02 64 99.4 72 104.02 72 77.02 64 72.4 56 77.02"/><g class="cls-3"><rect class="cls-4" width="128" height="128"/></g><path class="cls-1" d="M59.73,57.36V85.59L36,71.87a4,4,0,0,1-2-3.47V45.94a2,2,0,0,1,3-1.73Z"/><path class="cls-1" d="M68.27,57.36V85.59L92.05,71.87a4,4,0,0,0,2-3.47V45.94a2,2,0,0,0-3-1.73Z"/><path class="cls-5" d="M52.73,47.36V72.59L29,58.87a4,4,0,0,1-2-3.47V35.94a2,2,0,0,1,3-1.73Z"/><path class="cls-5" d="M75.27,47.36V72.59L99.05,58.87a4,4,0,0,0,2-3.47V35.94a2,2,0,0,0-3-1.73Z"/><path class="cls-6" d="M85,77.4V56.6a3,3,0,0,0-1.5-2.6l-18-10.4a3,3,0,0,0-3,0L44.48,54A3,3,0,0,0,43,56.6V77.4a3,3,0,0,0,1.5,2.6l18,10.4a3,3,0,0,0,3,0l18-10.4A3,3,0,0,0,85,77.4Z"/><path class="cls-2" d="M85,71.4V50.6a3,3,0,0,0-1.5-2.6l-18-10.4a3,3,0,0,0-3,0L44.48,48A3,3,0,0,0,43,50.6V71.4a3,3,0,0,0,1.5,2.6l18,10.4a3,3,0,0,0,3,0l18-10.4A3,3,0,0,0,85,71.4Z"/><path class="cls-7" d="M64,45.57a2.2,2.2,0,0,0-1.11.3l-11.43,6.6a2.16,2.16,0,0,0-.73.71l13.27,6Z"/><path class="cls-1" d="M50.59,68.6a2.23,2.23,0,0,0,.87.93l11.43,6.6a2.2,2.2,0,0,0,1.11.3V59.21Z"/><path class="cls-1" d="M77.41,68.6a2.31,2.31,0,0,0,.25-1V54.4a2.18,2.18,0,0,0-.39-1.22L64,59.21Z"/><path class="cls-5" d="M50.73,53.18a2.18,2.18,0,0,0-.39,1.22V67.6a2.31,2.31,0,0,0,.25,1L64,59.21Z"/><path class="cls-5" d="M76.54,52.47l-11.43-6.6a2.2,2.2,0,0,0-1.11-.3V59.21l13.27-6A2.16,2.16,0,0,0,76.54,52.47Z"/><path class="cls-2" d="M64,76.43a2.2,2.2,0,0,0,1.11-.3l11.43-6.6a2.23,2.23,0,0,0,.87-.93L64,59.21Z"/></g></g></svg>