<svg xmlns="http://www.w3.org/2000/svg" viewBox="0 0 128 128"><defs><style>.cls-1{fill:#abfff0;}.cls-2{fill:#d6fff8;}.cls-3{opacity:0;}.cls-4{fill:#1a1a1a;}.cls-5{fill:#00cccf;}.cls-6{fill:#fff;}.cls-7{fill:#73f0e8;}</style></defs><title>hexagon-platinum-12</title><g id="Layer_2" data-name="Layer 2"><g id="Hexagon"><path class="cls-1" d="M24.69,94.69l10.08-26.2,27.9-6.78-.74,28.62-35,7A2,2,0,0,1,24.69,94.69Z"/><path class="cls-1" d="M103.31,94.69,93.23,68.49l-27.9-6.78.74,28.62,35,7A2,2,0,0,0,103.31,94.69Z"/><path class="cls-2" d="M10.26,14.76,58.41,51.17,50.05,75.5l-24-2a6,6,0,0,1-5.32-4.46L7.12,16.86A2,2,0,0,1,10.26,14.76Z"/><path class="cls-2" d="M117.74,15.2,69.59,51.61,78,75.94l24-2a6,6,0,0,0,5.32-4.47L120.88,17.3A2,2,0,0,0,117.74,15.2Z"/><g class="cls-3"><rect class="cls-4" width="128" height="128"/></g><path class="cls-5" d="M55.21,91v24.46a3,3,0,0,0,1.5,2.6l5.79,3.34a3,3,0,0,0,3,0l5.79-3.34a3,3,0,0,0,1.5-2.6V91Z"/><path class="cls-6" d="M64,70.4,48.53,79.33v23.54a2,2,0,0,0,3,1.73L64,97.4l12.47,7.2a2,2,0,0,0,3-1.73V79.33Z"/><polygon class="cls-1" points="57.43 101.2 64 97.4 70.57 101.2 70.57 74.2 64 70.4 57.43 74.2 57.43 101.2"/><path class="cls-7" d="M85,77.4V56.6a3,3,0,0,0-1.5-2.6l-18-10.4a3,3,0,0,0-3,0L44.48,54A3,3,0,0,0,43,56.6V77.4a3,3,0,0,0,1.5,2.6l18,10.4a3,3,0,0,0,3,0l18-10.4A3,3,0,0,0,85,77.4Z"/><path class="cls-6" d="M85,71.4V50.6a3,3,0,0,0-1.5-2.6l-18-10.4a3,3,0,0,0-3,0L44.48,48A3,3,0,0,0,43,50.6V71.4a3,3,0,0,0,1.5,2.6l18,10.4a3,3,0,0,0,3,0l18-10.4A3,3,0,0,0,85,71.4Z"/><path class="cls-1" d="M105.34,102.76a2,2,0,0,0-.83-.21H95.26a1.89,1.89,0,0,0-1.37.57l4.29,4.28Z"/><path class="cls-7" d="M109.82,119.05a1.91,1.91,0,0,0,.49-1.93l-3.94-13.19a1.9,1.9,0,0,0-1-1.17l-7.16,4.64Z"/><path class="cls-5" d="M94.7,115.59l13.2,4a1.92,1.92,0,0,0,1.92-.49L98.18,107.4l-4.65,7.16A1.93,1.93,0,0,0,94.7,115.59Z"/><path class="cls-7" d="M93.89,103.12a1.93,1.93,0,0,0-.57,1.37v9.25a1.92,1.92,0,0,0,.21.82l4.65-7.16Z"/><path class="cls-1" d="M22.66,102.76a2,2,0,0,1,.83-.21h9.25a1.89,1.89,0,0,1,1.37.57l-4.29,4.28Z"/><path class="cls-7" d="M18.18,119.05a1.91,1.91,0,0,1-.49-1.93l3.94-13.19a1.9,1.9,0,0,1,1-1.17l7.16,4.64Z"/><path class="cls-5" d="M33.3,115.59l-13.2,4a1.92,1.92,0,0,1-1.92-.49L29.82,107.4l4.65,7.16A1.93,1.93,0,0,1,33.3,115.59Z"/><path class="cls-7" d="M34.11,103.12a1.93,1.93,0,0,1,.57,1.37v9.25a1.92,1.92,0,0,1-.21.82l-4.65-7.16Z"/><path class="cls-7" d="M106.72,48.56a1.92,1.92,0,0,0-.42.75l-2.39,8.94a1.92,1.92,0,0,0,.19,1.47l5.25-3Z"/><path class="cls-1" d="M123.61,48.45a1.91,1.91,0,0,0-1.73-1l-13.76.39a1.94,1.94,0,0,0-1.4.69l2.63,8.12Z"/><path class="cls-7" d="M116.36,62.16l7.22-11.73a1.88,1.88,0,0,0,0-2l-14.26,8.23L115.06,63A1.92,1.92,0,0,0,116.36,62.16Z"/><path class="cls-5" d="M104.1,59.72a2,2,0,0,0,1.18.9L114.21,63a1.75,1.75,0,0,0,.85,0l-5.71-6.34Z"/><path class="cls-7" d="M21.28,48.56a1.92,1.92,0,0,1,.42.75l2.39,8.94a1.92,1.92,0,0,1-.19,1.47l-5.25-3Z"/><path class="cls-1" d="M4.39,48.45a1.91,1.91,0,0,1,1.73-1l13.76.39a1.94,1.94,0,0,1,1.4.69l-2.63,8.12Z"/><path class="cls-7" d="M11.64,62.16,4.42,50.43a1.88,1.88,0,0,1,0-2l14.26,8.23L12.94,63A1.92,1.92,0,0,1,11.64,62.16Z"/><path class="cls-5" d="M23.9,59.72a2,2,0,0,1-1.18.9L13.79,63a1.75,1.75,0,0,1-.85,0l5.71-6.34Z"/><path class="cls-7" d="M55.65,19.42a2,2,0,0,0,.44.74l6.54,6.54a1.92,1.92,0,0,0,1.37.57V21.2Z"/><path class="cls-1" d="M64,4.73a1.9,1.9,0,0,0-1.7,1L55.75,17.87a2,2,0,0,0-.1,1.55L64,21.2Z"/><path class="cls-7" d="M72.25,17.87,65.7,5.75a1.9,1.9,0,0,0-1.7-1V21.2l8.35-1.78A2,2,0,0,0,72.25,17.87Z"/><path class="cls-5" d="M64,27.27a1.92,1.92,0,0,0,1.37-.57l6.54-6.54a2,2,0,0,0,.44-.74L64,21.2Z"/><path class="cls-6" d="M64,45.57a2.2,2.2,0,0,0-1.11.3l-11.43,6.6a2.16,2.16,0,0,0-.73.71l13.27,6Z"/><path class="cls-7" d="M50.59,68.6a2.23,2.23,0,0,0,.87.93l11.43,6.6a2.2,2.2,0,0,0,1.11.3V59.21Z"/><path class="cls-7" d="M77.41,68.6a2.31,2.31,0,0,0,.25-1V54.4a2.18,2.18,0,0,0-.39-1.22L64,59.21Z"/><path class="cls-1" d="M50.73,53.18a2.18,2.18,0,0,0-.39,1.22V67.6a2.31,2.31,0,0,0,.25,1L64,59.21Z"/><path class="cls-1" d="M76.54,52.47l-11.43-6.6a2.2,2.2,0,0,0-1.11-.3V59.21l13.27-6A2.16,2.16,0,0,0,76.54,52.47Z"/><path class="cls-5" d="M64,76.43a2.2,2.2,0,0,0,1.11-.3l11.43-6.6a2.23,2.23,0,0,0,.87-.93L64,59.21Z"/></g></g></svg>