<svg xmlns="http://www.w3.org/2000/svg" viewBox="0 0 128 128"><defs><style>.cls-1{fill:#1a1a1a;}.cls-2{fill:#60f7c5;}.cls-3{fill:#00cccf;}.cls-4{opacity:0;}.cls-5{fill:#c4ffed;}.cls-6{fill:#420ca3;}.cls-7{fill:#9652e3;}.cls-8{fill:#5f29c2;}</style></defs><title>hexagon-amethyst-5</title><g id="Layer_2" data-name="Layer 2"><g id="Hexagon"><path class="cls-1" d="M64,105.66a5,5,0,0,1-2.5-.68L49,97.79a5,5,0,0,1-2.5-4.33v-10l-3.06-1.76A5,5,0,0,1,41,77.4v-.32L35,73.6a6,6,0,0,1-3-5.2V62.91L28,60.6a6,6,0,0,1-3-5.2V35.94a4,4,0,0,1,4-4,3.92,3.92,0,0,1,2,.54L49.16,43,61.5,35.87a5,5,0,0,1,5,0L78.84,43,97.05,32.48a3.92,3.92,0,0,1,2-.54,4,4,0,0,1,4,4V55.4a6,6,0,0,1-3,5.2l-4,2.31V68.4a6,6,0,0,1-3,5.2l-6,3.48v.32a5,5,0,0,1-2.5,4.33l-3.06,1.76v10A5,5,0,0,1,79,97.79L66.5,105A5.09,5.09,0,0,1,64,105.66Z"/><path class="cls-1" d="M99,33.94a2,2,0,0,1,2,2V55.4a4,4,0,0,1-2,3.47l-5,2.88V68.4a4,4,0,0,1-2,3.47l-7,4.06V77.4a3,3,0,0,1-1.5,2.6l-4,2.34V93.46a3,3,0,0,1-1.5,2.6L72,99.5l-6.5,3.75a2.95,2.95,0,0,1-3,0L56,99.5l-6-3.44a3,3,0,0,1-1.5-2.6V82.34L44.48,80A3,3,0,0,1,43,77.4V75.93l-7-4.06a4,4,0,0,1-2-3.47V61.75l-5-2.88a4,4,0,0,1-2-3.47V35.94a2,2,0,0,1,2-2,1.92,1.92,0,0,1,1,.27L49.16,45.3,62.5,37.6a3,3,0,0,1,3,0l13.34,7.7L98.05,34.21a1.92,1.92,0,0,1,1-.27m0-4a6.06,6.06,0,0,0-3,.8L78.84,40.68,67.5,34.13a7.05,7.05,0,0,0-7,0L49.16,40.68,32,30.74a6,6,0,0,0-7.16.87A6,6,0,0,0,23,35.94V55.4a8,8,0,0,0,4,6.93l3,1.73V68.4a8,8,0,0,0,4,6.93L39,78.27a7,7,0,0,0,3.44,5.19l2.05,1.19v8.81A7,7,0,0,0,48,99.52L54,103l6.5,3.76a7,7,0,0,0,7,0L74,103l6-3.44a7,7,0,0,0,3.5-6.06V84.65l2-1.19A7,7,0,0,0,89,78.27l5.09-2.94a8,8,0,0,0,4-6.93V64.06l3-1.73a8,8,0,0,0,4-6.93V35.94a6,6,0,0,0-6-6Z"/><path class="cls-2" d="M59.73,57.36V85.59L36,71.87a4,4,0,0,1-2-3.47V45.94a2,2,0,0,1,3-1.73Z"/><path class="cls-2" d="M68.27,57.36V85.59L92.05,71.87a4,4,0,0,0,2-3.47V45.94a2,2,0,0,0-3-1.73Z"/><path class="cls-3" d="M79.47,93.46V79.07a3,3,0,0,0-1.5-2.6L65.5,69.27a3,3,0,0,0-3,0L50,76.47a3,3,0,0,0-1.5,2.6V93.46a3,3,0,0,0,1.5,2.6l12.47,7.19a3,3,0,0,0,3,0L78,96.06A3,3,0,0,0,79.47,93.46Z"/><path class="cls-2" d="M72,73l-6.5-3.75a3,3,0,0,0-3,0L56,73V99.5l6.5,3.75a3,3,0,0,0,3,0L72,99.5Z"/><g class="cls-4"><rect class="cls-1" width="128" height="128"/></g><path class="cls-5" d="M52.73,47.36V72.59L29,58.87a4,4,0,0,1-2-3.47V35.94a2,2,0,0,1,3-1.73Z"/><path class="cls-5" d="M75.27,47.36V72.59L99.05,58.87a4,4,0,0,0,2-3.47V35.94a2,2,0,0,0-3-1.73Z"/><path class="cls-6" d="M85,77.4V56.6a3,3,0,0,0-1.5-2.6l-18-10.4a3,3,0,0,0-3,0L44.48,54A3,3,0,0,0,43,56.6V77.4a3,3,0,0,0,1.5,2.6l18,10.4a3,3,0,0,0,3,0l18-10.4A3,3,0,0,0,85,77.4Z"/><path class="cls-7" d="M85,71.4V50.6a3,3,0,0,0-1.5-2.6l-18-10.4a3,3,0,0,0-3,0L44.48,48A3,3,0,0,0,43,50.6V71.4a3,3,0,0,0,1.5,2.6l18,10.4a3,3,0,0,0,3,0l18-10.4A3,3,0,0,0,85,71.4Z"/><path class="cls-8" d="M77.27,53.18a2.16,2.16,0,0,0-.73-.71l-11.43-6.6a2.2,2.2,0,0,0-2.22,0l-11.43,6.6a2.16,2.16,0,0,0-.73.71,2.18,2.18,0,0,0-.39,1.22V67.6a2.31,2.31,0,0,0,.25,1,2.23,2.23,0,0,0,.87.93l11.43,6.6a2.2,2.2,0,0,0,2.22,0l11.43-6.6a2.23,2.23,0,0,0,.87-.93,2.31,2.31,0,0,0,.25-1V54.4A2.18,2.18,0,0,0,77.27,53.18Z"/></g></g></svg>