<svg xmlns="http://www.w3.org/2000/svg" viewBox="0 0 128 128"><defs><style>.cls-1{fill:#1a1a1a;}.cls-2{fill:#00cccf;}.cls-3{fill:#60f7c5;}.cls-4{opacity:0;}.cls-5{fill:#c4ffed;}.cls-6{fill:#3a0c8f;}.cls-7{fill:#9652e3;}.cls-8{fill:#fff;}</style></defs><title>hexagon-amethyst-8</title><g id="Layer_2" data-name="Layer 2"><g id="Hexagon"><path class="cls-1" d="M77.46,108.87a4,4,0,0,1-2-.54L64,101.71l-11.46,6.62a4,4,0,0,1-6-3.46V83.49l-3.06-1.76A5,5,0,0,1,41,77.4v-.32L35,73.6a6,6,0,0,1-3-5.2V62.91L28,60.6a6,6,0,0,1-3-5.2V35.94a4,4,0,0,1,4-4,3.92,3.92,0,0,1,2,.54L49.16,43,61.5,35.87a5,5,0,0,1,5,0L78.84,43,97.05,32.48a3.93,3.93,0,0,1,2-.54,4,4,0,0,1,4,4V55.4a6,6,0,0,1-3,5.2l-4,2.31V68.4a6,6,0,0,1-3,5.2l-6,3.48v.32a5,5,0,0,1-2.5,4.33l-3.06,1.76v21.38a4,4,0,0,1-1.22,2.88,4,4,0,0,1-2.78,1.12Z"/><path class="cls-1" d="M99,33.94a2,2,0,0,1,2,2V55.4a4,4,0,0,1-2,3.47l-5,2.88V68.4a4,4,0,0,1-2,3.47l-7,4.06V77.4a3,3,0,0,1-1.5,2.6l-4,2.34v22.53a2,2,0,0,1-2,2,1.92,1.92,0,0,1-1-.27L72,104,64,99.4,56,104l-4.47,2.58a1.92,1.92,0,0,1-1,.27,2,2,0,0,1-2-2V82.34L44.48,80A3,3,0,0,1,43,77.4V75.93l-7-4.06a4,4,0,0,1-2-3.47V61.75l-5-2.88a4,4,0,0,1-2-3.47V35.94a2,2,0,0,1,2-2,1.92,1.92,0,0,1,1,.27L49.16,45.3,62.5,37.6a3,3,0,0,1,3,0l13.34,7.7L98.05,34.21a1.92,1.92,0,0,1,1-.27m0-4a6.06,6.06,0,0,0-3,.8L78.84,40.68,67.5,34.13a7.05,7.05,0,0,0-7,0L49.16,40.68,32,30.74a6,6,0,0,0-7.16.87A6,6,0,0,0,23,35.94V55.4a8,8,0,0,0,4,6.93l3,1.73V68.4a8,8,0,0,0,4,6.93L39,78.27a7,7,0,0,0,3.44,5.19l2.05,1.19v20.22a6,6,0,0,0,6,6,6.12,6.12,0,0,0,3-.8L58,107.49,64,104l6,3.47,4.47,2.58a6,6,0,0,0,9-5.2V84.65l2-1.19A7,7,0,0,0,89,78.27l5.09-2.94a8,8,0,0,0,4-6.93V64.06l3-1.73a8,8,0,0,0,4-6.93V35.94a6,6,0,0,0-6-6Z"/><path class="cls-2" d="M64,72.4,48.53,81.33v23.54a2,2,0,0,0,3,1.73L64,99.4l12.47,7.2a2,2,0,0,0,3-1.73V81.33Z"/><polygon class="cls-3" points="56 77.02 56 104.02 64 99.4 72 104.02 72 77.02 64 72.4 56 77.02"/><g class="cls-4"><rect class="cls-1" width="128" height="128"/></g><path class="cls-3" d="M59.73,57.36V85.59L36,71.87a4,4,0,0,1-2-3.47V45.94a2,2,0,0,1,3-1.73Z"/><path class="cls-3" d="M68.27,57.36V85.59L92.05,71.87a4,4,0,0,0,2-3.47V45.94a2,2,0,0,0-3-1.73Z"/><path class="cls-5" d="M52.73,47.36V72.59L29,58.87a4,4,0,0,1-2-3.47V35.94a2,2,0,0,1,3-1.73Z"/><path class="cls-5" d="M75.27,47.36V72.59L99.05,58.87a4,4,0,0,0,2-3.47V35.94a2,2,0,0,0-3-1.73Z"/><path class="cls-6" d="M85,77.4V56.6a3,3,0,0,0-1.5-2.6l-18-10.4a3,3,0,0,0-3,0L44.48,54A3,3,0,0,0,43,56.6V77.4a3,3,0,0,0,1.5,2.6l18,10.4a3,3,0,0,0,3,0l18-10.4A3,3,0,0,0,85,77.4Z"/><path class="cls-7" d="M85,71.4V50.6a3,3,0,0,0-1.5-2.6l-18-10.4a3,3,0,0,0-3,0L44.48,48A3,3,0,0,0,43,50.6V71.4a3,3,0,0,0,1.5,2.6l18,10.4a3,3,0,0,0,3,0l18-10.4A3,3,0,0,0,85,71.4Z"/><path class="cls-8" d="M64,45.57a2.2,2.2,0,0,0-1.11.3l-11.43,6.6a2.16,2.16,0,0,0-.73.71l13.27,6Z"/><path class="cls-3" d="M50.59,68.6a2.23,2.23,0,0,0,.87.93l11.43,6.6a2.2,2.2,0,0,0,1.11.3V59.21Z"/><path class="cls-3" d="M77.41,68.6a2.31,2.31,0,0,0,.25-1V54.4a2.18,2.18,0,0,0-.39-1.22L64,59.21Z"/><path class="cls-5" d="M50.73,53.18a2.18,2.18,0,0,0-.39,1.22V67.6a2.31,2.31,0,0,0,.25,1L64,59.21Z"/><path class="cls-5" d="M76.54,52.47l-11.43-6.6a2.2,2.2,0,0,0-1.11-.3V59.21l13.27-6A2.16,2.16,0,0,0,76.54,52.47Z"/><path class="cls-2" d="M64,76.43a2.2,2.2,0,0,0,1.11-.3l11.43-6.6a2.23,2.23,0,0,0,.87-.93L64,59.21Z"/></g></g></svg>