<svg xmlns="http://www.w3.org/2000/svg" viewBox="0 0 128 128"><defs><style>.cls-1{fill:#1a1a1a;}.cls-2{opacity:0;}.cls-3{fill:#96dbff;}.cls-4{fill:#e62e49;}.cls-5{fill:#c62d43;}.cls-6{fill:#fff;}.cls-7{fill:#a72d3e;}.cls-8{fill:#ff7a6e;}</style></defs><title>hexagon-ruby-7</title><g id="Layer_2" data-name="Layer 2"><g id="Hexagon"><path class="cls-1" d="M64,105.66a5,5,0,0,1-2.5-.68L49,97.79a5,5,0,0,1-2.5-4.33v-10l-3.06-1.76A5,5,0,0,1,41,77.4v-.32L35,73.6a6,6,0,0,1-3-5.2V62.91L28,60.6a6,6,0,0,1-3-5.2V35.94a4,4,0,0,1,4-4,3.92,3.92,0,0,1,2,.54L49.16,43,61.5,35.87a5,5,0,0,1,5,0L78.84,43,97.05,32.48a3.92,3.92,0,0,1,2-.54,4,4,0,0,1,4,4V55.4a6,6,0,0,1-3,5.2l-4,2.31V68.4a6,6,0,0,1-3,5.2l-6,3.48v.32a5,5,0,0,1-2.5,4.33l-3.06,1.76v10A5,5,0,0,1,79,97.79L66.5,105A5.09,5.09,0,0,1,64,105.66Z"/><path class="cls-1" d="M99,33.94a2,2,0,0,1,2,2V55.4a4,4,0,0,1-2,3.47l-5,2.88V68.4a4,4,0,0,1-2,3.47l-7,4.06V77.4a3,3,0,0,1-1.5,2.6l-4,2.34V93.46a3,3,0,0,1-1.5,2.6L72,99.5l-6.5,3.75a2.95,2.95,0,0,1-3,0L56,99.5l-6-3.44a3,3,0,0,1-1.5-2.6V82.34L44.48,80A3,3,0,0,1,43,77.4V75.93l-7-4.06a4,4,0,0,1-2-3.47V61.75l-5-2.88a4,4,0,0,1-2-3.47V35.94a2,2,0,0,1,2-2,1.92,1.92,0,0,1,1,.27L49.16,45.3,62.5,37.6a3,3,0,0,1,3,0l13.34,7.7L98.05,34.21a1.92,1.92,0,0,1,1-.27m0-4a6.06,6.06,0,0,0-3,.8L78.84,40.68,67.5,34.13a7.05,7.05,0,0,0-7,0L49.16,40.68,32,30.74a6,6,0,0,0-7.16.87A6,6,0,0,0,23,35.94V55.4a8,8,0,0,0,4,6.93l3,1.73V68.4a8,8,0,0,0,4,6.93L39,78.27a7,7,0,0,0,3.44,5.19l2.05,1.19v8.81A7,7,0,0,0,48,99.52L54,103l6.5,3.76a7,7,0,0,0,7,0L74,103l6-3.44a7,7,0,0,0,3.5-6.06V84.65l2-1.19A7,7,0,0,0,89,78.27l5.09-2.94a8,8,0,0,0,4-6.93V64.06l3-1.73a8,8,0,0,0,4-6.93V35.94a6,6,0,0,0-6-6Z"/><g class="cls-2"><rect class="cls-1" width="128" height="128"/></g><path class="cls-3" d="M59.73,57.36V85.59L36,71.87a4,4,0,0,1-2-3.47V45.94a2,2,0,0,1,3-1.73Z"/><path class="cls-3" d="M68.27,57.36V85.59L92.05,71.87a4,4,0,0,0,2-3.47V45.94a2,2,0,0,0-3-1.73Z"/><path class="cls-4" d="M79.47,93.46V79.07a3,3,0,0,0-1.5-2.6L65.5,69.27a3,3,0,0,0-3,0L50,76.47a3,3,0,0,0-1.5,2.6V93.46a3,3,0,0,0,1.5,2.6l12.47,7.19a3,3,0,0,0,3,0L78,96.06A3,3,0,0,0,79.47,93.46Z"/><path class="cls-5" d="M72,73l-6.5-3.75a3,3,0,0,0-3,0L56,73V99.5l6.5,3.75a3,3,0,0,0,3,0L72,99.5Z"/><path class="cls-6" d="M52.73,47.36V72.59L29,58.87a4,4,0,0,1-2-3.47V35.94a2,2,0,0,1,3-1.73Z"/><path class="cls-6" d="M75.27,47.36V72.59L99.05,58.87a4,4,0,0,0,2-3.47V35.94a2,2,0,0,0-3-1.73Z"/><path class="cls-7" d="M85,77.4V56.6a3,3,0,0,0-1.5-2.6l-18-10.4a3,3,0,0,0-3,0L44.48,54A3,3,0,0,0,43,56.6V77.4a3,3,0,0,0,1.5,2.6l18,10.4a3,3,0,0,0,3,0l18-10.4A3,3,0,0,0,85,77.4Z"/><path class="cls-4" d="M85,71.4V50.6a3,3,0,0,0-1.5-2.6l-18-10.4a3,3,0,0,0-3,0L44.48,48A3,3,0,0,0,43,50.6V71.4a3,3,0,0,0,1.5,2.6l18,10.4a3,3,0,0,0,3,0l18-10.4A3,3,0,0,0,85,71.4Z"/><path class="cls-5" d="M49.83,69.35a2.43,2.43,0,0,0,.78.75l12.2,7a2.37,2.37,0,0,0,2.38,0l12.2-7a2.43,2.43,0,0,0,.78-.75,2.38,2.38,0,0,0,.4-1.31V54a2.43,2.43,0,0,0-1.18-2.06l-12.2-7a2.37,2.37,0,0,0-2.38,0l-12.2,7A2.43,2.43,0,0,0,49.43,54V68A2.38,2.38,0,0,0,49.83,69.35Z"/><path class="cls-6" d="M64,49.41a1.67,1.67,0,0,0-.84.22l-8.59,5a1.64,1.64,0,0,0-.55.53l10,4.53Z"/><path class="cls-4" d="M53.92,66.71a1.69,1.69,0,0,0,.65.7l8.59,5a1.67,1.67,0,0,0,.84.22V59.65Z"/><path class="cls-4" d="M74.08,66.71a1.74,1.74,0,0,0,.19-.75V56a1.65,1.65,0,0,0-.29-.92L64,59.65Z"/><path class="cls-8" d="M54,55.12a1.65,1.65,0,0,0-.29.92V66a1.74,1.74,0,0,0,.19.75L64,59.65Z"/><path class="cls-8" d="M73.43,54.59l-8.59-5a1.67,1.67,0,0,0-.84-.22V59.65l10-4.53A1.64,1.64,0,0,0,73.43,54.59Z"/><path class="cls-7" d="M64,72.59a1.67,1.67,0,0,0,.84-.22l8.59-5a1.69,1.69,0,0,0,.65-.7L64,59.65Z"/></g></g></svg>