<svg xmlns="http://www.w3.org/2000/svg" viewBox="0 0 128 128"><defs><style>.cls-1{fill:#1a1a1a;}.cls-2{opacity:0;}.cls-3{fill:#abfff0;}.cls-4{fill:#d6fff8;}.cls-5{fill:#73f0e8;}.cls-6{fill:#fff;}.cls-7{fill:#00cccf;}</style></defs><title>hexagon-platinum-9</title><g id="Layer_2" data-name="Layer 2"><g id="Hexagon"><path class="cls-1" d="M77.46,108.87a4,4,0,0,1-2-.54L64,101.71l-11.46,6.62a4,4,0,0,1-6-3.46V89.81l-13.2,2.66a4.26,4.26,0,0,1-.8.08,4,4,0,0,1-3.72-5.44l5.38-14-2-.17a8,8,0,0,1-7.09-6L14.24,25.46A3.92,3.92,0,0,1,14.93,22a4,4,0,0,1,3.19-1.58,3.94,3.94,0,0,1,2.4.82L49.22,43,61.5,35.87a5,5,0,0,1,5,0L78.78,43l28.7-21.7a3.94,3.94,0,0,1,2.4-.82A4.07,4.07,0,0,1,113.07,22a3.94,3.94,0,0,1,.69,3.45L102.93,67a8,8,0,0,1-7.09,6l-2,.17,5.38,14a4,4,0,0,1-3.72,5.44h0a4.26,4.26,0,0,1-.8-.08l-13.2-2.66v15.06A4,4,0,0,1,77.46,108.87Z"/><path class="cls-1" d="M109.88,22.44a2,2,0,0,1,2,2.51L101,66.5A6,6,0,0,1,95.68,71L91,71.35l6.34,16.48a2,2,0,0,1-1.85,2.72,1.92,1.92,0,0,1-.41,0L79.47,87.37v17.5a2,2,0,0,1-2,2,1.92,1.92,0,0,1-1-.27L72,104,64,99.4,56,104l-4.47,2.58a1.92,1.92,0,0,1-1,.27,2,2,0,0,1-2-2V87.37L33,90.5a1.92,1.92,0,0,1-.41,0,2,2,0,0,1-1.85-2.72L37,71.35,32.32,71A6,6,0,0,1,27,66.5L16.17,25a2,2,0,0,1,3.14-2.1l29.76,22.5L62.5,37.6a3,3,0,0,1,3,0l13.43,7.75,29.76-22.5a2,2,0,0,1,1.19-.41m0-4a6,6,0,0,0-3.61,1.22L78.63,40.56,67.5,34.13a7.05,7.05,0,0,0-7,0L49.37,40.56,21.73,19.66a6,6,0,0,0-3.61-1.22,6.1,6.1,0,0,0-4.78,2.35,6,6,0,0,0-1,5.17L23.14,67.51a10,10,0,0,0,8.24,7.37L27,86.39a6,6,0,0,0,5.59,8.16,6.11,6.11,0,0,0,1.2-.12l10.79-2.18v12.62a6,6,0,0,0,6,6,6.12,6.12,0,0,0,3-.8L58,107.49,64,104l6,3.47,4.47,2.58a6,6,0,0,0,9-5.2V92.25l10.79,2.18a6.11,6.11,0,0,0,1.2.12,6,6,0,0,0,5.59-8.16L96.62,74.88a10,10,0,0,0,8.24-7.37L115.7,26a6,6,0,0,0-1-5.17,6.1,6.1,0,0,0-4.78-2.35Z"/><g class="cls-2"><rect class="cls-1" width="128" height="128"/></g><path class="cls-3" d="M30.69,87.83l8.11-21.1,23.1-5.62L61.29,84.8,33,90.5A2,2,0,0,1,30.69,87.83Z"/><path class="cls-4" d="M19.31,22.85,58.38,52.39,51.46,72.53,32.32,71A6,6,0,0,1,27,66.5L16.17,25A2,2,0,0,1,19.31,22.85Z"/><path class="cls-3" d="M97.31,87.83,89.2,66.73,66.1,61.11l.61,23.69,28.34,5.7A2,2,0,0,0,97.31,87.83Z"/><path class="cls-4" d="M108.69,22.85,69.62,52.39l6.92,20.14L95.68,71A6,6,0,0,0,101,66.5L111.83,25A2,2,0,0,0,108.69,22.85Z"/><path class="cls-5" d="M64,72.4,48.53,81.33v23.54a2,2,0,0,0,3,1.73L64,99.4l12.47,7.2a2,2,0,0,0,3-1.73V81.33Z"/><polygon class="cls-6" points="56 77.02 56 104.02 64 99.4 72 104.02 72 77.02 64 72.4 56 77.02"/><path class="cls-5" d="M85,77.4V56.6a3,3,0,0,0-1.5-2.6l-18-10.4a3,3,0,0,0-3,0L44.48,54A3,3,0,0,0,43,56.6V77.4a3,3,0,0,0,1.5,2.6l18,10.4a3,3,0,0,0,3,0l18-10.4A3,3,0,0,0,85,77.4Z"/><path class="cls-6" d="M85,71.4V50.6a3,3,0,0,0-1.5-2.6l-18-10.4a3,3,0,0,0-3,0L44.48,48A3,3,0,0,0,43,50.6V71.4a3,3,0,0,0,1.5,2.6l18,10.4a3,3,0,0,0,3,0l18-10.4A3,3,0,0,0,85,71.4Z"/><path class="cls-6" d="M64,45.57a2.2,2.2,0,0,0-1.11.3l-11.43,6.6a2.16,2.16,0,0,0-.73.71l13.27,6Z"/><path class="cls-5" d="M50.59,68.6a2.23,2.23,0,0,0,.87.93l11.43,6.6a2.2,2.2,0,0,0,1.11.3V59.21Z"/><path class="cls-5" d="M77.41,68.6a2.31,2.31,0,0,0,.25-1V54.4a2.18,2.18,0,0,0-.39-1.22L64,59.21Z"/><path class="cls-3" d="M50.73,53.18a2.18,2.18,0,0,0-.39,1.22V67.6a2.31,2.31,0,0,0,.25,1L64,59.21Z"/><path class="cls-3" d="M76.54,52.47l-11.43-6.6a2.2,2.2,0,0,0-1.11-.3V59.21l13.27-6A2.16,2.16,0,0,0,76.54,52.47Z"/><path class="cls-7" d="M64,76.43a2.2,2.2,0,0,0,1.11-.3l11.43-6.6a2.23,2.23,0,0,0,.87-.93L64,59.21Z"/></g></g></svg>