<svg xmlns="http://www.w3.org/2000/svg" viewBox="0 0 128 128"><defs><style>.cls-1{fill:#1a1a1a;}.cls-2{fill:#b5fff1;}.cls-3{opacity:0;}.cls-4{fill:#00cccf;}.cls-5{fill:#73f0e8;}.cls-6{fill:#fff;}</style></defs><title>hexagon-platinum-4</title><g id="Layer_2" data-name="Layer 2"><g id="Hexagon"><path class="cls-1" d="M64,105.66a5,5,0,0,1-2.5-.68L49,97.79a5,5,0,0,1-2.5-4.33v-10l-3.06-1.76A5,5,0,0,1,41,77.4V72.81L32,67.6a6,6,0,0,1-3-5.2V39.94a4,4,0,0,1,4-4,3.92,3.92,0,0,1,2,.54L47.7,43.83l13.8-8a5,5,0,0,1,5,0l13.8,8,12.75-7.35a3.92,3.92,0,0,1,2-.54,4,4,0,0,1,4,4V62.4a6,6,0,0,1-3,5.2l-9,5.21V77.4a5,5,0,0,1-2.5,4.33l-3.06,1.76v10A5,5,0,0,1,79,97.79L66.5,105A5.09,5.09,0,0,1,64,105.66Z"/><path class="cls-1" d="M64,37.2a3,3,0,0,1,1.5.4l14.8,8.54,13.75-7.93a1.92,1.92,0,0,1,1-.27,2,2,0,0,1,2,2V62.4a4,4,0,0,1-2,3.47L85,71.66V77.4a3,3,0,0,1-1.5,2.6l-4,2.34V93.46a3,3,0,0,1-1.5,2.6L65.5,103.25a2.95,2.95,0,0,1-3,0L50,96.06a3,3,0,0,1-1.5-2.6V82.34L44.48,80A3,3,0,0,1,43,77.4V71.66L33,65.87a4,4,0,0,1-2-3.47V39.94a2,2,0,0,1,2-2,1.92,1.92,0,0,1,1,.27L47.7,46.14,62.5,37.6a3,3,0,0,1,1.5-.4m0-4a7,7,0,0,0-3.5.93l-12.8,7.4L36,34.74a6,6,0,0,0-7.16.87A6,6,0,0,0,27,39.94V62.4a8,8,0,0,0,4,6.93L39,74V77.4a7,7,0,0,0,3.5,6.06l2.05,1.19v8.81A7,7,0,0,0,48,99.52l12.46,7.2a7,7,0,0,0,7,0L80,99.52a7,7,0,0,0,3.5-6.06V84.65l2-1.19A7,7,0,0,0,89,77.4V74l8-4.64a8,8,0,0,0,4-6.93V39.94a6,6,0,0,0-9-5.2L80.3,41.53l-12.8-7.4A7,7,0,0,0,64,33.2Z"/><path class="cls-2" d="M56.73,51.36V79.59L33,65.87a4,4,0,0,1-2-3.47V39.94a2,2,0,0,1,3-1.73Z"/><path class="cls-2" d="M71.27,51.36V79.59L95.05,65.87a4,4,0,0,0,2-3.47V39.94a2,2,0,0,0-3-1.73Z"/><g class="cls-3"><rect class="cls-1" width="128" height="128"/></g><path class="cls-4" d="M79.47,93.46V79.07a3,3,0,0,0-1.5-2.6L65.5,69.27a3,3,0,0,0-3,0L50,76.47a3,3,0,0,0-1.5,2.6V93.46a3,3,0,0,0,1.5,2.6l12.47,7.19a3,3,0,0,0,3,0L78,96.06A3,3,0,0,0,79.47,93.46Z"/><path class="cls-5" d="M85,77.4V56.6a3,3,0,0,0-1.5-2.6l-18-10.4a3,3,0,0,0-3,0L44.48,54A3,3,0,0,0,43,56.6V77.4a3,3,0,0,0,1.5,2.6l18,10.4a3,3,0,0,0,3,0l18-10.4A3,3,0,0,0,85,77.4Z"/><path class="cls-6" d="M85,71.4V50.6a3,3,0,0,0-1.5-2.6l-18-10.4a3,3,0,0,0-3,0L44.48,48A3,3,0,0,0,43,50.6V71.4a3,3,0,0,0,1.5,2.6l18,10.4a3,3,0,0,0,3,0l18-10.4A3,3,0,0,0,85,71.4Z"/><path class="cls-2" d="M77.27,53.18a2.16,2.16,0,0,0-.73-.71l-11.43-6.6a2.2,2.2,0,0,0-2.22,0l-11.43,6.6a2.16,2.16,0,0,0-.73.71,2.18,2.18,0,0,0-.39,1.22V67.6a2.31,2.31,0,0,0,.25,1,2.23,2.23,0,0,0,.87.93l11.43,6.6a2.2,2.2,0,0,0,2.22,0l11.43-6.6a2.23,2.23,0,0,0,.87-.93,2.31,2.31,0,0,0,.25-1V54.4A2.18,2.18,0,0,0,77.27,53.18Z"/></g></g></svg>