<svg xmlns="http://www.w3.org/2000/svg" viewBox="0 0 128 128"><defs><style>.cls-1{opacity:0;}.cls-2{fill:#1a1a1a;}.cls-3{fill:#4e6978;}.cls-4{fill:#8ba3b0;}.cls-5{fill:#dde7ed;}.cls-6{fill:#fff;}.cls-7{fill:#bdccd4;}.cls-8{fill:#ffbdc6;}.cls-9{fill:#ff8ca9;}.cls-10{fill:#e6095e;}</style></defs><title>diamond-silver-11</title><g id="Layer_2" data-name="Layer 2"><g id="Diamond"><g class="cls-1"><rect class="cls-2" width="128" height="128"/></g><path class="cls-3" d="M75.38,109,64,100.26,52.62,109a2,2,0,0,1-3.22-1.59V68.06H78.6v39.35A2,2,0,0,1,75.38,109Z"/><polygon class="cls-4" points="57.43 105.31 64 100.26 70.57 105.31 70.57 68.06 57.43 68.06 57.43 105.31"/><path class="cls-5" d="M90.68,77l3-9H34.33l3,9a3,3,0,0,0,2.84,2H87.84A3,3,0,0,0,90.68,77Z"/><path class="cls-6" d="M63.62,50.92,17.26,41.83a2,2,0,0,0-2.13,3L28.47,66.47A3,3,0,0,0,31.09,68H96.91a3,3,0,0,0,2.62-1.53l13.34-21.69a2,2,0,0,0-2.13-3L64.38,50.92A1.94,1.94,0,0,1,63.62,50.92Z"/><path class="cls-4" d="M45.38,54.89c-1.05-1-5.92-12.68-5-13.63S53,45.19,54,46.24s0,3.83-2.43,6.21S46.42,55.93,45.38,54.89Z"/><path class="cls-4" d="M74,46.24c1-1.05,12.68-5.93,13.63-5s-3.93,12.58-5,13.63-3.83,0-6.22-2.44S72.93,47.28,74,46.24Z"/><path class="cls-7" d="M87.17,58.14,66.6,37.58a3.67,3.67,0,0,0-5.2,0L40.83,58.14a3.69,3.69,0,0,0-1.08,2.61v6.5a3.69,3.69,0,0,0,1.08,2.61L61.4,90.42a3.67,3.67,0,0,0,5.2,0L87.17,69.86a3.69,3.69,0,0,0,1.08-2.61v-6.5A3.69,3.69,0,0,0,87.17,58.14Z"/><rect class="cls-5" x="45.78" y="42.52" width="36.45" height="36.45" rx="3.68" transform="translate(-24.21 63.05) rotate(-45)"/><path class="cls-4" d="M82.62,73.47c1,1,5.92,12.68,5,13.63S75,83.17,74,82.12s0-3.83,2.43-6.22S81.58,72.43,82.62,73.47Z"/><path class="cls-4" d="M54,82.12c-1.05,1-12.68,5.92-13.63,5s3.93-12.58,5-13.63,3.83,0,6.22,2.43S55.07,81.08,54,82.12Z"/><path class="cls-8" d="M64,45a1.72,1.72,0,0,0-1.22.51l-14,14a1.72,1.72,0,0,0-.51,1.22H64Z"/><path class="cls-9" d="M48.26,60.75A1.68,1.68,0,0,0,48.77,62l14,14a1.71,1.71,0,0,0,1.22.5V60.75Z"/><path class="cls-10" d="M64,76.48a1.71,1.71,0,0,0,1.22-.5l14-14a1.68,1.68,0,0,0,.51-1.21H64Z"/><path class="cls-9" d="M65.22,45.52A1.72,1.72,0,0,0,64,45V60.75H79.74a1.72,1.72,0,0,0-.51-1.22Z"/><path class="cls-3" d="M73.31,16.59A26.3,26.3,0,0,1,71.18,25c3.27-.23,5.41-.62,5.41-1.06l1.52-10.23Z"/><path class="cls-3" d="M49.89,13.73,51.41,24c0,.44,2.14.83,5.41,1.06a26.3,26.3,0,0,1-2.13-8.43Z"/><path class="cls-4" d="M70.62,18.2,64,10.07,57.38,18.2l-2.69-1.61A26.3,26.3,0,0,0,56.82,25c2,.15,4.51.23,7.18.23s5.14-.08,7.18-.23a26.3,26.3,0,0,0,2.13-8.43Z"/></g></g></svg>