<svg xmlns="http://www.w3.org/2000/svg" viewBox="0 0 128 128"><defs><style>.cls-1{fill:#1a1a1a;}.cls-2{opacity:0;}.cls-3{fill:#324652;}.cls-4{fill:#476475;}.cls-5{fill:#5d7c8c;}.cls-6{fill:#7b97a6;}</style></defs><title>hexagon-onyx-11</title><g id="Layer_2" data-name="Layer 2"><g id="Hexagon"><path class="cls-1" d="M64.09,119.8a5,5,0,0,1-2.5-.67l-5.79-3.34a5,5,0,0,1-2.5-4.33V106l-.67.38a3.93,3.93,0,0,1-2,.54,4,4,0,0,1-4-4V89.19L30.34,92.47a4.26,4.26,0,0,1-.8.08,4,4,0,0,1-3.72-5.44l5.38-14-2-.17a8,8,0,0,1-7.09-6L11.24,25.46A3.94,3.94,0,0,1,11.93,22a4.07,4.07,0,0,1,3.19-1.57,3.94,3.94,0,0,1,2.4.82L47.56,44l14-8.1a5,5,0,0,1,5,0l13.93,8,30-22.65a3.94,3.94,0,0,1,2.4-.82A4.07,4.07,0,0,1,116.07,22a3.94,3.94,0,0,1,.69,3.45L105.93,67a8,8,0,0,1-7.09,6l-2,.17,5.38,14a4,4,0,0,1-3.72,5.44h0a4.26,4.26,0,0,1-.8-.08l-16.1-3.24v13.64a4,4,0,0,1-4,4,3.92,3.92,0,0,1-2-.54l-.68-.38v5.51a5,5,0,0,1-2.5,4.33l-5.79,3.34A5,5,0,0,1,64.09,119.8Z"/><path class="cls-1" d="M112.88,22.44a2,2,0,0,1,2,2.51L104,66.5A6,6,0,0,1,98.68,71L94,71.35l6.34,16.48a2,2,0,0,1-1.85,2.72,1.92,1.92,0,0,1-.41,0L79.56,86.78v16.09a2,2,0,0,1-2,2,1.92,1.92,0,0,1-1-.27l-3.68-2.12v9a3,3,0,0,1-1.5,2.6l-5.79,3.34a3,3,0,0,1-3,0l-5.79-3.34a3,3,0,0,1-1.5-2.6v-9l-3.67,2.12a2,2,0,0,1-3-1.73V86.75L30,90.5a1.92,1.92,0,0,1-.41,0,2,2,0,0,1-1.85-2.72L34,71.35,29.32,71A6,6,0,0,1,24,66.5L13.17,25a2,2,0,0,1,3.14-2.1l31.1,23.51L62.59,37.6a3,3,0,0,1,3,0l15.08,8.7,31-23.45a2,2,0,0,1,1.19-.41m0-4a6,6,0,0,0-3.61,1.22L80.37,41.51,67.59,34.13a7.05,7.05,0,0,0-7,0L47.7,41.57l-29-21.91a6,6,0,0,0-3.61-1.22,6.1,6.1,0,0,0-4.78,2.35A6,6,0,0,0,9.3,26L20.14,67.51a10,10,0,0,0,8.24,7.37L24,86.39a6,6,0,0,0,5.59,8.16,6.11,6.11,0,0,0,1.2-.12l13.89-2.8v11.24a6,6,0,0,0,6,6,5,5,0,0,0,.67,0v2.63a7,7,0,0,0,3.5,6.06l5.79,3.35a7.05,7.05,0,0,0,7,0l5.79-3.35a7,7,0,0,0,3.5-6.06v-2.63a5.12,5.12,0,0,0,.67,0,6,6,0,0,0,6-6V91.67l13.7,2.76a6.11,6.11,0,0,0,1.2.12,6,6,0,0,0,5.59-8.16L99.62,74.88a10,10,0,0,0,8.24-7.38L118.7,26a6,6,0,0,0-1-5.17,6.1,6.1,0,0,0-4.78-2.35Z"/><path class="cls-1" d="M112.46,124.62a4,4,0,0,1-1.13-.17l-13.2-3.94a4.05,4.05,0,0,1-2.81-3.77v-9.25a3.93,3.93,0,0,1,3.94-3.94h9.25a3.82,3.82,0,0,1,1.7.41,3.94,3.94,0,0,1,2.07,2.4l4,13.19a4,4,0,0,1-1,3.91,3.9,3.9,0,0,1-2.78,1.16Z"/><path class="cls-1" d="M99.26,105.55h9.25a2,2,0,0,1,.83.21,1.9,1.9,0,0,1,1,1.17l3.94,13.19a1.95,1.95,0,0,1-1.85,2.5,2.23,2.23,0,0,1-.56-.08l-13.2-4a2,2,0,0,1-1.38-1.85v-9.25a1.93,1.93,0,0,1,.57-1.37,1.89,1.89,0,0,1,1.37-.57m0-4h0a5.94,5.94,0,0,0-5.94,5.93v9.26a6.06,6.06,0,0,0,4.24,5.69l13.19,3.94a6.26,6.26,0,0,0,1.71.25,5.94,5.94,0,0,0,5.68-7.64l-3.94-13.19a6,6,0,0,0-5.69-4.24Z"/><path class="cls-1" d="M64,29.27a3.88,3.88,0,0,1-2.78-1.16l-6.55-6.54a3.86,3.86,0,0,1-.91-1.49A4,4,0,0,1,54,16.92L60.54,4.8a3.93,3.93,0,0,1,6.92,0L74,16.92a3.93,3.93,0,0,1,.22,3.17,3.76,3.76,0,0,1-.9,1.48l-6.55,6.54A3.88,3.88,0,0,1,64,29.27Z"/><path class="cls-1" d="M64,4.73a1.9,1.9,0,0,1,1.7,1l6.55,12.12a2,2,0,0,1,.1,1.55,2,2,0,0,1-.44.74L65.37,26.7a1.93,1.93,0,0,1-2.74,0l-6.54-6.54a2,2,0,0,1-.44-.74,2,2,0,0,1,.1-1.55L62.3,5.75a1.9,1.9,0,0,1,1.7-1m0-4a5.93,5.93,0,0,0-5.22,3.12L52.23,16a6.06,6.06,0,0,0,1,7l6.54,6.54a5.94,5.94,0,0,0,8.4,0L74.74,23a6.06,6.06,0,0,0,1-7L69.22,3.85A5.93,5.93,0,0,0,64,.73Z"/><path class="cls-1" d="M15.54,124.62a3.9,3.9,0,0,1-2.78-1.16,4,4,0,0,1-1-3.91l4-13.19A3.92,3.92,0,0,1,17.8,104a3.75,3.75,0,0,1,1.69-.41h9.25a3.94,3.94,0,0,1,3.94,3.94v9.25a4.05,4.05,0,0,1-2.81,3.77l-13.2,3.94A4,4,0,0,1,15.54,124.62Z"/><path class="cls-1" d="M28.74,105.55a1.89,1.89,0,0,1,1.37.57,1.93,1.93,0,0,1,.57,1.37v9.25a2,2,0,0,1-1.38,1.85l-13.2,4a2.23,2.23,0,0,1-.56.08,1.95,1.95,0,0,1-1.85-2.5l3.94-13.19a1.9,1.9,0,0,1,1-1.17,2,2,0,0,1,.83-.21h9.25m0-4H19.49a6,6,0,0,0-5.69,4.24L9.86,119a5.94,5.94,0,0,0,5.68,7.64,6.26,6.26,0,0,0,1.71-.25l13.19-3.94a5.94,5.94,0,0,0,3.63-3.14,5.86,5.86,0,0,0,.61-2.55v-9.25a5.94,5.94,0,0,0-5.94-5.94Z"/><g class="cls-2"><rect class="cls-1" width="128" height="128"/></g><path class="cls-3" d="M27.69,87.83l8.11-21.1,23.1-5.62L58.29,84.8,30,90.5A2,2,0,0,1,27.69,87.83Z"/><path class="cls-3" d="M100.31,87.83,92.2,66.73,69.1,61.11l.61,23.69,28.34,5.7A2,2,0,0,0,100.31,87.83Z"/><path class="cls-3" d="M16.31,22.85,55.38,52.39,48.46,72.53,29.32,71A6,6,0,0,1,24,66.5L13.17,25A2,2,0,0,1,16.31,22.85Z"/><path class="cls-3" d="M111.69,22.85,72.62,52.39l6.92,20.14L98.68,71A6,6,0,0,0,104,66.5L114.83,25A2,2,0,0,0,111.69,22.85Z"/><path class="cls-3" d="M55.3,91v20.46a3,3,0,0,0,1.5,2.6l5.79,3.34a3,3,0,0,0,3,0l5.79-3.34a3,3,0,0,0,1.5-2.6V91Z"/><path class="cls-4" d="M64.09,70.4,48.63,79.33v23.54a2,2,0,0,0,3,1.73l12.46-7.2,12.47,7.2a2,2,0,0,0,3-1.73V79.33Z"/><polygon class="cls-5" points="57.52 101.2 64.09 97.4 70.67 101.2 70.67 74.2 64.09 70.4 57.52 74.2 57.52 101.2"/><path class="cls-3" d="M85.11,77.4V56.6a3,3,0,0,0-1.5-2.6l-18-10.4a3,3,0,0,0-3,0L44.57,54a3,3,0,0,0-1.5,2.6V77.4a3,3,0,0,0,1.5,2.6l18,10.4a3,3,0,0,0,3,0l18-10.4A3,3,0,0,0,85.11,77.4Z"/><path class="cls-4" d="M85.11,71.4V50.6a3,3,0,0,0-1.5-2.6l-18-10.4a3,3,0,0,0-3,0L44.57,48a3,3,0,0,0-1.5,2.6V71.4a3,3,0,0,0,1.5,2.6l18,10.4a3,3,0,0,0,3,0l18-10.4A3,3,0,0,0,85.11,71.4Z"/><path class="cls-6" d="M64.09,45.57a2.2,2.2,0,0,0-1.11.3l-11.43,6.6a2.16,2.16,0,0,0-.73.71l13.27,6Z"/><path class="cls-4" d="M50.68,68.6a2.29,2.29,0,0,0,.87.93L63,76.13a2.2,2.2,0,0,0,1.11.3V59.21Z"/><path class="cls-4" d="M77.5,68.6a2.31,2.31,0,0,0,.25-1V54.4a2.26,2.26,0,0,0-.38-1.22l-13.28,6Z"/><path class="cls-5" d="M50.82,53.18a2.18,2.18,0,0,0-.39,1.22V67.6a2.31,2.31,0,0,0,.25,1l13.41-9.39Z"/><path class="cls-5" d="M76.64,52.47,65.2,45.87a2.18,2.18,0,0,0-1.11-.3V59.21l13.28-6A2.36,2.36,0,0,0,76.64,52.47Z"/><path class="cls-3" d="M64.09,76.43a2.18,2.18,0,0,0,1.11-.3l11.44-6.6a2.2,2.2,0,0,0,.86-.93L64.09,59.21Z"/><path class="cls-5" d="M109.34,105.76a2,2,0,0,0-.83-.21H99.26a1.89,1.89,0,0,0-1.37.57l4.29,4.28Z"/><path class="cls-4" d="M113.82,122.05a1.91,1.91,0,0,0,.49-1.93l-3.94-13.19a1.9,1.9,0,0,0-1-1.17l-7.16,4.64Z"/><path class="cls-3" d="M98.7,118.59l13.2,4a1.92,1.92,0,0,0,1.92-.49L102.18,110.4l-4.65,7.16A1.93,1.93,0,0,0,98.7,118.59Z"/><path class="cls-4" d="M97.89,106.12a1.93,1.93,0,0,0-.57,1.37v9.25a1.92,1.92,0,0,0,.21.82l4.65-7.16Z"/><path class="cls-4" d="M55.65,19.42a2,2,0,0,0,.44.74l6.54,6.54a1.92,1.92,0,0,0,1.37.57V21.2Z"/><path class="cls-5" d="M64,4.73a1.9,1.9,0,0,0-1.7,1L55.75,17.87a2,2,0,0,0-.1,1.55L64,21.2Z"/><path class="cls-4" d="M72.25,17.87,65.7,5.75a1.9,1.9,0,0,0-1.7-1V21.2l8.35-1.78A2,2,0,0,0,72.25,17.87Z"/><path class="cls-3" d="M64,27.27a1.92,1.92,0,0,0,1.37-.57l6.54-6.54a2,2,0,0,0,.44-.74L64,21.2Z"/><path class="cls-5" d="M18.66,105.76a2,2,0,0,1,.83-.21h9.25a1.89,1.89,0,0,1,1.37.57l-4.29,4.28Z"/><path class="cls-4" d="M14.18,122.05a1.91,1.91,0,0,1-.49-1.93l3.94-13.19a1.9,1.9,0,0,1,1-1.17l7.16,4.64Z"/><path class="cls-3" d="M29.3,118.59l-13.2,4a1.92,1.92,0,0,1-1.92-.49L25.82,110.4l4.65,7.16A1.93,1.93,0,0,1,29.3,118.59Z"/><path class="cls-4" d="M30.11,106.12a1.93,1.93,0,0,1,.57,1.37v9.25a1.92,1.92,0,0,1-.21.82l-4.65-7.16Z"/></g></g></svg>