<svg xmlns="http://www.w3.org/2000/svg" viewBox="0 0 128 128"><defs><style>.cls-1{fill:#1a1a1a;}.cls-2{opacity:0;}.cls-3{fill:#8ba3b0;}.cls-4{fill:#bdccd4;}.cls-5{fill:#dde7ed;}</style></defs><title>hexagon-silver-1</title><g id="Layer_2" data-name="Layer 2"><g id="Hexagon"><path class="cls-1" d="M64,92.8a5,5,0,0,1-2.5-.67l-18-10.4A5,5,0,0,1,41,77.4V50.6a5,5,0,0,1,2.5-4.33l18-10.4a5,5,0,0,1,5,0l18,10.4A5,5,0,0,1,87,50.6V77.4a5,5,0,0,1-2.5,4.33l-18,10.4A5,5,0,0,1,64,92.8Z"/><path class="cls-1" d="M64,37.2a3,3,0,0,1,1.5.4l18,10.4A3,3,0,0,1,85,50.6V77.4a3,3,0,0,1-1.5,2.6l-18,10.4a3,3,0,0,1-3,0L44.48,80A3,3,0,0,1,43,77.4V50.6a3,3,0,0,1,1.5-2.6l18-10.4a3,3,0,0,1,1.5-.4m0-4a7,7,0,0,0-3.5.93l-18,10.41A7,7,0,0,0,39,50.6V77.4a7,7,0,0,0,3.5,6.06l18,10.41a7.05,7.05,0,0,0,7,0l18-10.41A7,7,0,0,0,89,77.4V50.6a7,7,0,0,0-3.5-6.06l-18-10.41A7,7,0,0,0,64,33.2Z"/><g class="cls-2"><rect class="cls-1" width="128" height="128"/></g><path class="cls-3" d="M85,77.4V56.6a3,3,0,0,0-1.5-2.6l-18-10.4a3,3,0,0,0-3,0L44.48,54A3,3,0,0,0,43,56.6V77.4a3,3,0,0,0,1.5,2.6l18,10.4a3,3,0,0,0,3,0l18-10.4A3,3,0,0,0,85,77.4Z"/><path class="cls-4" d="M85,71.4V50.6a3,3,0,0,0-1.5-2.6l-18-10.4a3,3,0,0,0-3,0L44.48,48A3,3,0,0,0,43,50.6V71.4a3,3,0,0,0,1.5,2.6l18,10.4a3,3,0,0,0,3,0l18-10.4A3,3,0,0,0,85,71.4Z"/><path class="cls-5" d="M77.27,53.18a2.16,2.16,0,0,0-.73-.71l-11.43-6.6a2.2,2.2,0,0,0-2.22,0l-11.43,6.6a2.16,2.16,0,0,0-.73.71,2.18,2.18,0,0,0-.39,1.22V67.6a2.31,2.31,0,0,0,.25,1,2.23,2.23,0,0,0,.87.93l11.43,6.6a2.2,2.2,0,0,0,2.22,0l11.43-6.6a2.23,2.23,0,0,0,.87-.93,2.31,2.31,0,0,0,.25-1V54.4A2.18,2.18,0,0,0,77.27,53.18Z"/></g></g></svg>