<svg xmlns="http://www.w3.org/2000/svg" viewBox="0 0 128 128"><defs><style>.cls-1{opacity:0;}.cls-2{fill:#1a1a1a;}.cls-3{fill:#fc9504;}.cls-4{fill:#fec92b;}.cls-5{fill:#00138f;}.cls-6{fill:#4783eb;}.cls-7{fill:#1251bd;}.cls-8{fill:#73f0d9;}.cls-9{fill:#fff;}.cls-10{fill:#feef8e;}</style></defs><title>hexagon-sapphire-10</title><g id="Layer_2" data-name="Layer 2"><g id="Hexagon"><g class="cls-1"><rect class="cls-2" width="128" height="128"/></g><path class="cls-3" d="M27.69,87.83l8.11-21.1,23.1-5.62L58.29,84.8,30,90.5A2,2,0,0,1,27.69,87.83Z"/><path class="cls-3" d="M100.31,87.83,92.2,66.73,69.1,61.11l.61,23.69,28.34,5.7A2,2,0,0,0,100.31,87.83Z"/><path class="cls-4" d="M16.31,22.85,55.38,52.39,48.46,72.53,29.32,71A6,6,0,0,1,24,66.5L13.17,25A2,2,0,0,1,16.31,22.85Z"/><path class="cls-4" d="M111.69,22.85,72.62,52.39l6.92,20.14L98.68,71A6,6,0,0,0,104,66.5L114.83,25A2,2,0,0,0,111.69,22.85Z"/><path class="cls-5" d="M55.3,91v20.46a3,3,0,0,0,1.5,2.6l5.79,3.34a3,3,0,0,0,3,0l5.79-3.34a3,3,0,0,0,1.5-2.6V91Z"/><path class="cls-6" d="M64.09,70.4,48.63,79.33v23.54a2,2,0,0,0,3,1.73l12.46-7.2,12.47,7.2a2,2,0,0,0,3-1.73V79.33Z"/><polygon class="cls-7" points="57.52 101.2 64.09 97.4 70.67 101.2 70.67 74.2 64.09 70.4 57.52 74.2 57.52 101.2"/><path class="cls-5" d="M85.11,77.4V56.6a3,3,0,0,0-1.5-2.6l-18-10.4a3,3,0,0,0-3,0L44.57,54a3,3,0,0,0-1.5,2.6V77.4a3,3,0,0,0,1.5,2.6l18,10.4a3,3,0,0,0,3,0l18-10.4A3,3,0,0,0,85.11,77.4Z"/><path class="cls-7" d="M64.09,83.3a1.43,1.43,0,0,1-.75-.2l-18-10.4a1.51,1.51,0,0,1-.75-1.3V50.6a1.51,1.51,0,0,1,.75-1.3l18-10.4a1.51,1.51,0,0,1,1.5,0l18,10.4a1.51,1.51,0,0,1,.75,1.3V71.4a1.51,1.51,0,0,1-.75,1.3l-18,10.4A1.43,1.43,0,0,1,64.09,83.3Z"/><path class="cls-6" d="M64.09,40.2h0l18,10.4V71.4l-18,10.4-18-10.4V50.6l18-10.4m0-3a3,3,0,0,0-1.5.4L44.57,48a3,3,0,0,0-1.5,2.6V71.4a3,3,0,0,0,1.5,2.6l18,10.4a3,3,0,0,0,3,0l18-10.4a3,3,0,0,0,1.5-2.6V50.6a3,3,0,0,0-1.5-2.6l-18-10.4a3,3,0,0,0-1.5-.4Z"/><path class="cls-8" d="M69.44,17.23l-4.31-8a1.29,1.29,0,0,0-2.26,0l-4.31,8a1.24,1.24,0,0,0-.07,1,1.19,1.19,0,0,0,.29.48l4.32,4.32a1.26,1.26,0,0,0,1.8,0l4.32-4.32a1.19,1.19,0,0,0,.29-.48A1.24,1.24,0,0,0,69.44,17.23Z"/><path class="cls-8" d="M111.44,118.07l-2.61-8.71a1.36,1.36,0,0,0-1.22-.91H101.5a1.27,1.27,0,0,0-.9.37,1.32,1.32,0,0,0-.38.91v6.1a1.35,1.35,0,0,0,.92,1.23l8.7,2.6a1.29,1.29,0,0,0,1.6-1.59Z"/><path class="cls-8" d="M26.5,108.45H20.39a1.36,1.36,0,0,0-1.22.91l-2.61,8.71a1.29,1.29,0,0,0,1.6,1.59l8.7-2.6a1.35,1.35,0,0,0,.92-1.23v-6.1a1.32,1.32,0,0,0-.38-.91A1.27,1.27,0,0,0,26.5,108.45Z"/><path class="cls-9" d="M64,48a1.87,1.87,0,0,0-.94.25l-9.63,5.56a1.87,1.87,0,0,0-.62.6L64,59.49Z"/><path class="cls-4" d="M52.7,67.4a1.91,1.91,0,0,0,.73.79l9.63,5.56A1.87,1.87,0,0,0,64,74V59.49Z"/><path class="cls-4" d="M75.3,67.4a1.83,1.83,0,0,0,.21-.84V55.44a1.85,1.85,0,0,0-.32-1L64,59.49Z"/><path class="cls-10" d="M52.81,54.41a1.85,1.85,0,0,0-.32,1V66.56a1.83,1.83,0,0,0,.21.84L64,59.49Z"/><path class="cls-10" d="M74.57,53.81l-9.63-5.56A1.87,1.87,0,0,0,64,48V59.49l11.19-5.08A1.87,1.87,0,0,0,74.57,53.81Z"/><path class="cls-3" d="M64,74a1.87,1.87,0,0,0,.94-.25l9.63-5.56a1.91,1.91,0,0,0,.73-.79L64,59.49Z"/></g></g></svg>