<svg xmlns="http://www.w3.org/2000/svg" viewBox="0 0 128 128"><defs><style>.cls-1{opacity:0;}.cls-2{fill:#1a1a1a;}.cls-3{fill:#fc9504;}.cls-4{fill:#fec92b;}.cls-5{fill:#4783eb;}.cls-6{fill:#1251bd;}.cls-7{fill:#00138f;}.cls-8{fill:#fff;}.cls-9{fill:#feef8e;}</style></defs><title>hexagon-sapphire-9</title><g id="Layer_2" data-name="Layer 2"><g id="Hexagon"><g class="cls-1"><rect class="cls-2" width="128" height="128"/></g><path class="cls-3" d="M30.69,87.83l8.11-21.1,23.1-5.62L61.29,84.8,33,90.5A2,2,0,0,1,30.69,87.83Z"/><path class="cls-4" d="M19.31,22.85,58.38,52.39,51.46,72.53,32.32,71A6,6,0,0,1,27,66.5L16.17,25A2,2,0,0,1,19.31,22.85Z"/><path class="cls-3" d="M97.31,87.83,89.2,66.73,66.1,61.11l.61,23.69,28.34,5.7A2,2,0,0,0,97.31,87.83Z"/><path class="cls-4" d="M108.69,22.85,69.62,52.39l6.92,20.14L95.68,71A6,6,0,0,0,101,66.5L111.83,25A2,2,0,0,0,108.69,22.85Z"/><path class="cls-5" d="M64,72.4,48.53,81.33v23.54a2,2,0,0,0,3,1.73L64,99.4l12.47,7.2a2,2,0,0,0,3-1.73V81.33Z"/><polygon class="cls-6" points="56 77.02 56 104.02 64 99.4 72 104.02 72 77.02 64 72.4 56 77.02"/><path class="cls-7" d="M85,77.4V56.6a3,3,0,0,0-1.5-2.6l-18-10.4a3,3,0,0,0-3,0L44.48,54A3,3,0,0,0,43,56.6V77.4a3,3,0,0,0,1.5,2.6l18,10.4a3,3,0,0,0,3,0l18-10.4A3,3,0,0,0,85,77.4Z"/><path class="cls-6" d="M64,83.3a1.43,1.43,0,0,1-.75-.2l-18-10.4a1.51,1.51,0,0,1-.75-1.3V50.6a1.51,1.51,0,0,1,.75-1.3l18-10.4a1.51,1.51,0,0,1,1.5,0l18,10.4a1.51,1.51,0,0,1,.75,1.3V71.4a1.51,1.51,0,0,1-.75,1.3l-18,10.4A1.43,1.43,0,0,1,64,83.3Z"/><path class="cls-5" d="M64,40.2h0L82,50.6V71.4L64,81.8,46,71.4V50.6L64,40.2m0-3a3,3,0,0,0-1.5.4L44.48,48A3,3,0,0,0,43,50.6V71.4a3,3,0,0,0,1.5,2.6l18,10.4a3,3,0,0,0,3,0l18-10.4A3,3,0,0,0,85,71.4V50.6a3,3,0,0,0-1.5-2.6l-18-10.4a3,3,0,0,0-1.5-.4Z"/><path class="cls-8" d="M64,48a1.87,1.87,0,0,0-.94.25l-9.63,5.56a1.87,1.87,0,0,0-.62.6L64,59.49Z"/><path class="cls-4" d="M52.7,67.4a1.91,1.91,0,0,0,.73.79l9.63,5.56A1.87,1.87,0,0,0,64,74V59.49Z"/><path class="cls-4" d="M75.3,67.4a1.83,1.83,0,0,0,.21-.84V55.44a1.85,1.85,0,0,0-.32-1L64,59.49Z"/><path class="cls-9" d="M52.81,54.41a1.85,1.85,0,0,0-.32,1V66.56a1.83,1.83,0,0,0,.21.84L64,59.49Z"/><path class="cls-9" d="M74.57,53.81l-9.63-5.56A1.87,1.87,0,0,0,64,48V59.49l11.19-5.08A1.87,1.87,0,0,0,74.57,53.81Z"/><path class="cls-3" d="M64,74a1.87,1.87,0,0,0,.94-.25l9.63-5.56a1.91,1.91,0,0,0,.73-.79L64,59.49Z"/></g></g></svg>