<svg xmlns="http://www.w3.org/2000/svg" viewBox="0 0 128 128"><defs><style>.cls-1{fill:#4783eb;}.cls-2{fill:#73f0d9;}.cls-3{fill:#fff;}.cls-4{opacity:0;}.cls-5{fill:#1a1a1a;}.cls-6{fill:#1251bd;}.cls-7{fill:#00138f;}.cls-8{fill:#fec92b;}</style></defs><title>hexagon-sapphire-5</title><g id="Layer_2" data-name="Layer 2"><g id="Hexagon"><path class="cls-1" d="M59.73,57.36V85.59L36,71.87a4,4,0,0,1-2-3.47V45.94a2,2,0,0,1,3-1.73Z"/><path class="cls-1" d="M68.27,57.36V85.59L92.05,71.87a4,4,0,0,0,2-3.47V45.94a2,2,0,0,0-3-1.73Z"/><path class="cls-2" d="M79.47,93.46V79.07a3,3,0,0,0-1.5-2.6L65.5,69.27a3,3,0,0,0-3,0L50,76.47a3,3,0,0,0-1.5,2.6V93.46a3,3,0,0,0,1.5,2.6l12.47,7.19a3,3,0,0,0,3,0L78,96.06A3,3,0,0,0,79.47,93.46Z"/><path class="cls-3" d="M72,73l-6.5-3.75a3,3,0,0,0-3,0L56,73V99.5l6.5,3.75a3,3,0,0,0,3,0L72,99.5Z"/><g class="cls-4"><rect class="cls-5" width="128" height="128"/></g><path class="cls-6" d="M52.73,47.36V72.59L29,58.87a4,4,0,0,1-2-3.47V35.94a2,2,0,0,1,3-1.73Z"/><path class="cls-6" d="M75.27,47.36V72.59L99.05,58.87a4,4,0,0,0,2-3.47V35.94a2,2,0,0,0-3-1.73Z"/><path class="cls-7" d="M85,77.4V56.6a3,3,0,0,0-1.5-2.6l-18-10.4a3,3,0,0,0-3,0L44.48,54A3,3,0,0,0,43,56.6V77.4a3,3,0,0,0,1.5,2.6l18,10.4a3,3,0,0,0,3,0l18-10.4A3,3,0,0,0,85,77.4Z"/><path class="cls-6" d="M64,83.3a1.43,1.43,0,0,1-.75-.2l-18-10.4a1.51,1.51,0,0,1-.75-1.3V50.6a1.51,1.51,0,0,1,.75-1.3l18-10.4a1.51,1.51,0,0,1,1.5,0l18,10.4a1.51,1.51,0,0,1,.75,1.3V71.4a1.51,1.51,0,0,1-.75,1.3l-18,10.4A1.43,1.43,0,0,1,64,83.3Z"/><path class="cls-1" d="M64,40.2h0L82,50.6V71.4L64,81.8,46,71.4V50.6L64,40.2m0-3a3,3,0,0,0-1.5.4L44.48,48A3,3,0,0,0,43,50.6V71.4a3,3,0,0,0,1.5,2.6l18,10.4a3,3,0,0,0,3,0l18-10.4A3,3,0,0,0,85,71.4V50.6a3,3,0,0,0-1.5-2.6l-18-10.4a3,3,0,0,0-1.5-.4Z"/><path class="cls-7" d="M75.19,54.41a1.87,1.87,0,0,0-.62-.6l-9.63-5.56a1.89,1.89,0,0,0-1.88,0l-9.63,5.56a1.87,1.87,0,0,0-.62.6,1.85,1.85,0,0,0-.32,1V66.56a1.83,1.83,0,0,0,.21.84,1.91,1.91,0,0,0,.73.79l9.63,5.56a1.89,1.89,0,0,0,1.88,0l9.63-5.56a1.91,1.91,0,0,0,.73-.79,1.83,1.83,0,0,0,.21-.84V55.44A1.85,1.85,0,0,0,75.19,54.41Z"/><path class="cls-8" d="M70.47,56.28H57.53a1,1,0,0,0-.87,1.5L63.13,69a1,1,0,0,0,1.74,0l6.47-11.21A1,1,0,0,0,70.47,56.28Z"/></g></g></svg>