<svg xmlns="http://www.w3.org/2000/svg" viewBox="0 0 128 128"><defs><style>.cls-1{opacity:0;}.cls-2{fill:#1a1a1a;}.cls-3{fill:#fec92b;}.cls-4{fill:#e62e49;}.cls-5{fill:#c62d43;}.cls-6{fill:#fff;}.cls-7{fill:#96dbff;}.cls-8{fill:#37b9ff;}.cls-9{fill:#cef;}.cls-10{fill:#1778ff;}</style></defs><title>hexagon-master-7</title><g id="Layer_2" data-name="Layer 2"><g id="Hexagon"><g class="cls-1"><rect class="cls-2" width="128" height="128"/></g><path class="cls-3" d="M59.73,57.36V85.59L36,71.87a4,4,0,0,1-2-3.47V45.94a2,2,0,0,1,3-1.73Z"/><path class="cls-3" d="M68.27,57.36V85.59L92.05,71.87a4,4,0,0,0,2-3.47V45.94a2,2,0,0,0-3-1.73Z"/><path class="cls-4" d="M79.47,93.46V79.07a3,3,0,0,0-1.5-2.6L65.5,69.27a3,3,0,0,0-3,0L50,76.47a3,3,0,0,0-1.5,2.6V93.46a3,3,0,0,0,1.5,2.6l12.47,7.19a3,3,0,0,0,3,0L78,96.06A3,3,0,0,0,79.47,93.46Z"/><path class="cls-5" d="M72,73l-6.5-3.75a3,3,0,0,0-3,0L56,73V99.5l6.5,3.75a3,3,0,0,0,3,0L72,99.5Z"/><path class="cls-6" d="M52.73,47.36V72.59L29,58.87a4,4,0,0,1-2-3.47V35.94a2,2,0,0,1,3-1.73Z"/><path class="cls-6" d="M75.27,47.36V72.59L99.05,58.87a4,4,0,0,0,2-3.47V35.94a2,2,0,0,0-3-1.73Z"/><path class="cls-7" d="M85,77.4V56.6a3,3,0,0,0-1.5-2.6l-18-10.4a3,3,0,0,0-3,0L44.48,54A3,3,0,0,0,43,56.6V77.4a3,3,0,0,0,1.5,2.6l18,10.4a3,3,0,0,0,3,0l18-10.4A3,3,0,0,0,85,77.4Z"/><path class="cls-6" d="M85,71.4V50.6a3,3,0,0,0-1.5-2.6l-18-10.4a3,3,0,0,0-3,0L44.48,48A3,3,0,0,0,43,50.6V71.4a3,3,0,0,0,1.5,2.6l18,10.4a3,3,0,0,0,3,0l18-10.4A3,3,0,0,0,85,71.4Z"/><path class="cls-7" d="M49.83,69.35a2.43,2.43,0,0,0,.78.75l12.2,7a2.37,2.37,0,0,0,2.38,0l12.2-7a2.43,2.43,0,0,0,.78-.75,2.38,2.38,0,0,0,.4-1.31V54a2.43,2.43,0,0,0-1.18-2.06l-12.2-7a2.37,2.37,0,0,0-2.38,0l-12.2,7A2.43,2.43,0,0,0,49.43,54V68A2.38,2.38,0,0,0,49.83,69.35Z"/><path class="cls-6" d="M64,49.41a1.67,1.67,0,0,0-.84.22l-8.59,5a1.64,1.64,0,0,0-.55.53l10,4.53Z"/><path class="cls-8" d="M53.92,66.71a1.69,1.69,0,0,0,.65.7l8.59,5a1.67,1.67,0,0,0,.84.22V59.65Z"/><path class="cls-8" d="M74.08,66.71a1.74,1.74,0,0,0,.19-.75V56a1.65,1.65,0,0,0-.29-.92L64,59.65Z"/><path class="cls-9" d="M54,55.12a1.65,1.65,0,0,0-.29.92V66a1.74,1.74,0,0,0,.19.75L64,59.65Z"/><path class="cls-9" d="M73.43,54.59l-8.59-5a1.67,1.67,0,0,0-.84-.22V59.65l10-4.53A1.64,1.64,0,0,0,73.43,54.59Z"/><path class="cls-10" d="M64,72.59a1.67,1.67,0,0,0,.84-.22l8.59-5a1.69,1.69,0,0,0,.65-.7L64,59.65Z"/></g></g></svg>