<svg xmlns="http://www.w3.org/2000/svg" viewBox="0 0 128 128"><defs><style>.cls-1{opacity:0;}.cls-2{fill:#1a1a1a;}.cls-3{fill:#96dbff;}.cls-4{fill:#fff;}.cls-5{fill:#cef;}</style></defs><title>diamond-master-1</title><g id="Layer_2" data-name="Layer 2"><g id="Diamond"><g class="cls-1"><rect class="cls-2" width="128" height="128"/></g><path class="cls-3" d="M87.21,58.14,66.64,37.58a3.68,3.68,0,0,0-5.21,0L40.87,58.14a3.69,3.69,0,0,0-1.08,2.61v6.5a3.69,3.69,0,0,0,1.08,2.61L61.43,90.42a3.68,3.68,0,0,0,5.21,0L87.21,69.86a3.72,3.72,0,0,0,1.07-2.61v-6.5A3.72,3.72,0,0,0,87.21,58.14Z"/><rect class="cls-4" x="45.81" y="42.52" width="36.45" height="36.45" rx="3.68" transform="translate(-24.2 63.07) rotate(-45)"/><rect class="cls-5" x="52.41" y="49.12" width="23.26" height="23.26" rx="1.72" transform="translate(-24.2 63.07) rotate(-45)"/></g></g></svg>