<svg xmlns="http://www.w3.org/2000/svg" viewBox="0 0 128 128"><defs><style>.cls-1{opacity:0;}.cls-2{fill:#1a1a1a;}.cls-3{fill:#e62e49;}.cls-4{fill:#c62d43;}.cls-5{fill:#cef;}.cls-6{fill:#fff;}.cls-7{fill:#fee854;}.cls-8{fill:#fc9504;}.cls-9{fill:#fec92b;}.cls-10{fill:#ff7a6e;}.cls-11{fill:#a72d3e;}</style></defs><title>diamond-gold-11</title><g id="Layer_2" data-name="Layer 2"><g id="Diamond"><g class="cls-1"><rect class="cls-2" width="128" height="128"/></g><path class="cls-2" d="M76.59,111.42a3.89,3.89,0,0,1-2.42-.84L64,102.78l-10.17,7.8a3.89,3.89,0,0,1-2.42.84,4,4,0,0,1-4-4v-20c-2.28.87-5,1.8-6.51,1.8a2.58,2.58,0,0,1-1.9-.71c-.7-.7-1.48-1.48.76-7.53a5,5,0,0,1-4.33-3.4L32.89,70h-1.8a5,5,0,0,1-4.36-2.55L13.42,45.83a4,4,0,0,1,3.43-6,4.15,4.15,0,0,1,.79.08l21,4.12c-.65-2.49-.39-3.42.34-4.14a2.58,2.58,0,0,1,1.9-.71c2.42,0,8.76,2.6,12,4.14L60,36.16a5.71,5.71,0,0,1,8,0l7.12,7.12c3.21-1.54,9.55-4.14,12-4.14a2.58,2.58,0,0,1,1.9.71c.73.72,1,1.65.34,4.14l21-4.12a4.15,4.15,0,0,1,.79-.08,4,4,0,0,1,3.43,2,4,4,0,0,1,0,4L101.23,67.52A5,5,0,0,1,96.91,70h-1.8l-2.53,7.58A5,5,0,0,1,88.25,81c2.24,6,1.46,6.83.76,7.53a2.58,2.58,0,0,1-1.9.71c-1.46,0-4.23-.93-6.51-1.8v20A4,4,0,0,1,76.59,111.42Z"/><path class="cls-2" d="M64,36.5a3.74,3.74,0,0,1,1.39.27,3.68,3.68,0,0,1,1.21.81l8.15,8.14c2.57-1.44,10.25-4.58,12.36-4.58a.74.74,0,0,1,.49.12c.4.4-.25,2.73-1.2,5.35l24.34-4.78a2.85,2.85,0,0,1,.41,0,2,2,0,0,1,1.72,3L99.53,66.47A3,3,0,0,1,96.91,68H93.67l-3,9a3,3,0,0,1-2.84,2H85.33c1.45,3.54,2.81,7.56,2.27,8.1a.74.74,0,0,1-.49.12c-1.41,0-5.31-1.41-8.51-2.77v23a2,2,0,0,1-2,2,2,2,0,0,1-1.21-.41l-4.81-3.69-6.57-5-6.57,5L52.62,109a2,2,0,0,1-1.21.41,2,2,0,0,1-2-2v-23c-3.2,1.36-7.1,2.77-8.51,2.77a.74.74,0,0,1-.49-.12c-.54-.54.82-4.56,2.27-8.1H40.16a3,3,0,0,1-2.84-2l-3-9H31.09a3,3,0,0,1-2.62-1.53L15.13,44.78a2,2,0,0,1,1.72-3,2.85,2.85,0,0,1,.41,0L41.6,46.61c-1-2.62-1.6-5-1.2-5.35a.74.74,0,0,1,.49-.12c2.11,0,9.79,3.14,12.36,4.58l8.15-8.14a3.68,3.68,0,0,1,1.21-.81A3.74,3.74,0,0,1,64,36.5m0-4a7.62,7.62,0,0,0-5.43,2.25l-6.14,6.14c-3.47-1.57-9-3.75-11.54-3.75a4.53,4.53,0,0,0-3.31,1.29,4.34,4.34,0,0,0-1.29,3.06L18,37.91a5.91,5.91,0,0,0-1.18-.12,6,6,0,0,0-5.16,3,5.93,5.93,0,0,0,0,6l.08.13L25,68.52A7,7,0,0,0,31.09,72h.36l2.07,6.21a7,7,0,0,0,3.64,4.11c-1.32,4.11-1.12,6.07.42,7.6a4.53,4.53,0,0,0,3.31,1.3,16.78,16.78,0,0,0,4.51-1v17.15a6,6,0,0,0,9.65,4.76l4.81-3.69L64,105.3l4.14,3.18L73,112.17a6,6,0,0,0,9.65-4.76V90.26a16.78,16.78,0,0,0,4.51,1,4.53,4.53,0,0,0,3.31-1.3c1.54-1.53,1.74-3.49.42-7.6a7,7,0,0,0,3.64-4.11L96.55,72h.36A7,7,0,0,0,103,68.52l13.31-21.65.08-.13a5.93,5.93,0,0,0,0-6,6,6,0,0,0-5.16-3,5.91,5.91,0,0,0-1.18.12L91.71,41.49a4.34,4.34,0,0,0-1.29-3.06,4.5,4.5,0,0,0-3.3-1.29h0c-2.58,0-8.07,2.18-11.54,3.75l-6.14-6.14A7.62,7.62,0,0,0,64,32.5Z"/><path class="cls-3" d="M75.38,109,64,100.26,52.62,109a2,2,0,0,1-3.22-1.59V68.06H78.6v39.35A2,2,0,0,1,75.38,109Z"/><polygon class="cls-4" points="57.43 105.31 64 100.26 70.57 105.31 70.57 68.06 57.43 68.06 57.43 105.31"/><path class="cls-2" d="M64,27.25c-3.43,0-6.67-.14-9.11-.39s-5.32-.54-5.48-2.7L47.92,14a2,2,0,0,1,.86-2,2,2,0,0,1,1.11-.34,2,2,0,0,1,1,.29l6,3.58,5.53-6.8a2,2,0,0,1,3.1,0l5.53,6.8,6-3.58a2,2,0,0,1,1-.29,2,2,0,0,1,1.11.34,2,2,0,0,1,.86,2L78.59,24.16c-.16,2.16-3,2.45-5.48,2.7S67.43,27.25,64,27.25Z"/><path class="cls-2" d="M64,10.07l6.62,8.13,7.49-4.47L76.59,24c0,.72-5.63,1.29-12.59,1.29S51.41,24.68,51.41,24L49.89,13.73l7.49,4.47L64,10.07m14.11,3.66h0M64,6.07a4,4,0,0,0-3.1,1.47L56.46,13,51.94,10.3a4,4,0,0,0-6,4l1.48,10c.28,3.79,4.63,4.23,7.27,4.5s5.81.4,9.31.4,6.8-.14,9.31-.4,7-.71,7.27-4.5L82,14.48a3.67,3.67,0,0,0,.07-.75,4,4,0,0,0-4-4h0a4,4,0,0,0-2.11.6L71.54,13,67.1,7.54A4,4,0,0,0,64,6.07Z"/><path class="cls-5" d="M90.68,77l3-9H34.33l3,9a3,3,0,0,0,2.84,2H87.84A3,3,0,0,0,90.68,77Z"/><path class="cls-6" d="M63.62,50.92,17.26,41.83a2,2,0,0,0-2.13,3L28.47,66.47A3,3,0,0,0,31.09,68H96.91a3,3,0,0,0,2.62-1.53l13.34-21.69a2,2,0,0,0-2.13-3L64.38,50.92A1.94,1.94,0,0,1,63.62,50.92Z"/><path class="cls-7" d="M45.38,54.89c-1.05-1-5.92-12.68-5-13.63S53,45.19,54,46.24s0,3.83-2.43,6.21S46.42,55.93,45.38,54.89Z"/><path class="cls-7" d="M74,46.24c1-1.05,12.68-5.93,13.63-5s-3.93,12.58-5,13.63-3.83,0-6.22-2.44S72.93,47.28,74,46.24Z"/><path class="cls-8" d="M87.17,58.14,66.6,37.58a3.67,3.67,0,0,0-5.2,0L40.83,58.14a3.69,3.69,0,0,0-1.08,2.61v6.5a3.69,3.69,0,0,0,1.08,2.61L61.4,90.42a3.67,3.67,0,0,0,5.2,0L87.17,69.86a3.69,3.69,0,0,0,1.08-2.61v-6.5A3.69,3.69,0,0,0,87.17,58.14Z"/><rect class="cls-9" x="45.78" y="42.52" width="36.45" height="36.45" rx="3.68" transform="translate(-24.21 63.05) rotate(-45)"/><path class="cls-9" d="M82.62,73.47c1,1,5.92,12.68,5,13.63S75,83.17,74,82.12s0-3.83,2.43-6.22S81.58,72.43,82.62,73.47Z"/><path class="cls-9" d="M54,82.12c-1.05,1-12.68,5.92-13.63,5s3.93-12.58,5-13.63,3.83,0,6.22,2.43S55.07,81.08,54,82.12Z"/><path class="cls-10" d="M64,45a1.72,1.72,0,0,0-1.22.51l-14,14a1.72,1.72,0,0,0-.51,1.22H64Z"/><path class="cls-3" d="M48.26,60.75A1.68,1.68,0,0,0,48.77,62l14,14a1.71,1.71,0,0,0,1.22.5V60.75Z"/><path class="cls-11" d="M64,76.48a1.71,1.71,0,0,0,1.22-.5l14-14a1.68,1.68,0,0,0,.51-1.21H64Z"/><path class="cls-3" d="M65.22,45.52A1.72,1.72,0,0,0,64,45V60.75H79.74a1.72,1.72,0,0,0-.51-1.22Z"/><path class="cls-9" d="M73.31,16.59A26.3,26.3,0,0,1,71.18,25c3.27-.23,5.41-.62,5.41-1.06l1.52-10.23Z"/><path class="cls-9" d="M49.89,13.73,51.41,24c0,.44,2.14.83,5.41,1.06a26.3,26.3,0,0,1-2.13-8.43Z"/><path class="cls-7" d="M70.62,18.2,64,10.07,57.38,18.2l-2.69-1.61A26.3,26.3,0,0,0,56.82,25c2,.15,4.51.23,7.18.23s5.14-.08,7.18-.23a26.3,26.3,0,0,0,2.13-8.43Z"/></g></g></svg>