<svg xmlns="http://www.w3.org/2000/svg" viewBox="0 0 128 128"><defs><style>.cls-1{opacity:0;}.cls-2{fill:#1a1a1a;}.cls-3{fill:#a72d3e;}.cls-4{fill:#c62d43;}.cls-5{fill:#e62e49;}.cls-6{fill:#ffada6;}.cls-7{fill:#ff7a6e;}</style></defs><title>hexagon-ruby-10</title><g id="Layer_2" data-name="Layer 2"><g id="Hexagon"><g class="cls-1"><rect class="cls-2" width="128" height="128"/></g><path class="cls-3" d="M27.69,87.83l8.11-21.1,23.1-5.62L58.29,84.8,30,90.5A2,2,0,0,1,27.69,87.83Z"/><path class="cls-3" d="M100.31,87.83,92.2,66.73,69.1,61.11l.61,23.69,28.34,5.7A2,2,0,0,0,100.31,87.83Z"/><path class="cls-4" d="M16.31,22.85,55.38,52.39,48.46,72.53,29.32,71A6,6,0,0,1,24,66.5L13.17,25A2,2,0,0,1,16.31,22.85Z"/><path class="cls-4" d="M111.69,22.85,72.62,52.39l6.92,20.14L98.68,71A6,6,0,0,0,104,66.5L114.83,25A2,2,0,0,0,111.69,22.85Z"/><path class="cls-3" d="M55.3,91v20.46a3,3,0,0,0,1.5,2.6l5.79,3.34a3,3,0,0,0,3,0l5.79-3.34a3,3,0,0,0,1.5-2.6V91Z"/><path class="cls-5" d="M64.09,70.4,48.63,79.33v23.54a2,2,0,0,0,3,1.73l12.46-7.2,12.47,7.2a2,2,0,0,0,3-1.73V79.33Z"/><polygon class="cls-4" points="57.52 101.2 64.09 97.4 70.67 101.2 70.67 74.2 64.09 70.4 57.52 74.2 57.52 101.2"/><path class="cls-3" d="M85.11,77.4V56.6a3,3,0,0,0-1.5-2.6l-18-10.4a3,3,0,0,0-3,0L44.57,54a3,3,0,0,0-1.5,2.6V77.4a3,3,0,0,0,1.5,2.6l18,10.4a3,3,0,0,0,3,0l18-10.4A3,3,0,0,0,85.11,77.4Z"/><path class="cls-5" d="M85.11,71.4V50.6a3,3,0,0,0-1.5-2.6l-18-10.4a3,3,0,0,0-3,0L44.57,48a3,3,0,0,0-1.5,2.6V71.4a3,3,0,0,0,1.5,2.6l18,10.4a3,3,0,0,0,3,0l18-10.4A3,3,0,0,0,85.11,71.4Z"/><path class="cls-6" d="M64.09,45.57a2.2,2.2,0,0,0-1.11.3l-11.43,6.6a2.16,2.16,0,0,0-.73.71l13.27,6Z"/><path class="cls-4" d="M50.68,68.6a2.29,2.29,0,0,0,.87.93L63,76.13a2.2,2.2,0,0,0,1.11.3V59.21Z"/><path class="cls-4" d="M77.5,68.6a2.31,2.31,0,0,0,.25-1V54.4a2.26,2.26,0,0,0-.38-1.22l-13.28,6Z"/><path class="cls-7" d="M50.82,53.18a2.18,2.18,0,0,0-.39,1.22V67.6a2.31,2.31,0,0,0,.25,1l13.41-9.39Z"/><path class="cls-7" d="M76.64,52.47,65.2,45.87a2.18,2.18,0,0,0-1.11-.3V59.21l13.28-6A2.36,2.36,0,0,0,76.64,52.47Z"/><path class="cls-3" d="M64.09,76.43a2.18,2.18,0,0,0,1.11-.3l11.44-6.6a2.2,2.2,0,0,0,.86-.93L64.09,59.21Z"/><path class="cls-5" d="M69.44,17.23l-4.31-8a1.29,1.29,0,0,0-2.26,0l-4.31,8a1.24,1.24,0,0,0-.07,1,1.19,1.19,0,0,0,.29.48l4.32,4.32a1.26,1.26,0,0,0,1.8,0l4.32-4.32a1.19,1.19,0,0,0,.29-.48A1.24,1.24,0,0,0,69.44,17.23Z"/><path class="cls-5" d="M111.44,118.07l-2.61-8.71a1.36,1.36,0,0,0-1.22-.91H101.5a1.27,1.27,0,0,0-.9.37,1.32,1.32,0,0,0-.38.91v6.1a1.35,1.35,0,0,0,.92,1.23l8.7,2.6a1.29,1.29,0,0,0,1.6-1.59Z"/><path class="cls-5" d="M26.5,108.45H20.39a1.36,1.36,0,0,0-1.22.91l-2.61,8.71a1.29,1.29,0,0,0,1.6,1.59l8.7-2.6a1.35,1.35,0,0,0,.92-1.23v-6.1a1.32,1.32,0,0,0-.38-.91A1.27,1.27,0,0,0,26.5,108.45Z"/></g></g></svg>