<svg xmlns="http://www.w3.org/2000/svg" viewBox="0 0 128 128"><defs><style>.cls-1{opacity:0;}.cls-2{fill:#1a1a1a;}.cls-3{fill:#a72d3e;}.cls-4{fill:#e62e49;}.cls-5{fill:#c62d43;}</style></defs><title>hexagon-ruby-1</title><g id="Layer_2" data-name="Layer 2"><g id="Hexagon"><g class="cls-1"><rect class="cls-2" width="128" height="128"/></g><path class="cls-3" d="M85,77.4V56.6a3,3,0,0,0-1.5-2.6l-18-10.4a3,3,0,0,0-3,0L44.48,54A3,3,0,0,0,43,56.6V77.4a3,3,0,0,0,1.5,2.6l18,10.4a3,3,0,0,0,3,0l18-10.4A3,3,0,0,0,85,77.4Z"/><path class="cls-4" d="M85,71.4V50.6a3,3,0,0,0-1.5-2.6l-18-10.4a3,3,0,0,0-3,0L44.48,48A3,3,0,0,0,43,50.6V71.4a3,3,0,0,0,1.5,2.6l18,10.4a3,3,0,0,0,3,0l18-10.4A3,3,0,0,0,85,71.4Z"/><path class="cls-5" d="M77.27,53.18a2.16,2.16,0,0,0-.73-.71l-11.43-6.6a2.2,2.2,0,0,0-2.22,0l-11.43,6.6a2.16,2.16,0,0,0-.73.71,2.18,2.18,0,0,0-.39,1.22V67.6a2.31,2.31,0,0,0,.25,1,2.23,2.23,0,0,0,.87.93l11.43,6.6a2.2,2.2,0,0,0,2.22,0l11.43-6.6a2.23,2.23,0,0,0,.87-.93,2.31,2.31,0,0,0,.25-1V54.4A2.18,2.18,0,0,0,77.27,53.18Z"/></g></g></svg>